<svg width="8" height="8" viewBox="0 0 8 8" fill="none" xmlns="http://www.w3.org/2000/svg">
<path d="M7.16665 4.22893V3.7714C7.16665 3.2264 7.16665 2.9539 7.06515 2.70887C6.96365 2.46384 6.77098 2.27115 6.38561 1.88578L6.11435 1.61455C5.72898 1.22917 5.53631 1.03648 5.29128 0.934989C5.04625 0.833496 4.77375 0.833496 4.22875 0.833496H3.77121C3.22622 0.833496 2.95371 0.833496 2.70869 0.934989C2.46366 1.03648 2.27097 1.22917 1.8856 1.61455L1.61436 1.88578C1.22899 2.27116 1.0363 2.46384 0.934806 2.70887C0.833313 2.9539 0.833313 3.2264 0.833313 3.7714V4.22893C0.833313 4.77393 0.833313 5.04643 0.934806 5.29146C1.0363 5.5365 1.22899 5.72916 1.61436 6.11453L1.8856 6.3858C2.27097 6.77116 2.46366 6.96383 2.70869 7.06533C2.95371 7.16683 3.22622 7.16683 3.77121 7.16683H4.22875C4.77375 7.16683 5.04625 7.16683 5.29128 7.06533C5.53631 6.96383 5.72898 6.77116 6.11435 6.3858L6.38561 6.11453C6.77098 5.72916 6.96365 5.5365 7.06515 5.29146C7.16665 5.04643 7.16665 4.77393 7.16665 4.22893Z" stroke="black" stroke-width="0.75" stroke-linecap="round" stroke-linejoin="round"/>
<path d="M4 5.3335V3.8335" stroke="black" stroke-width="0.75" stroke-linecap="round" stroke-linejoin="round"/>
<path d="M4 2.67033V2.66699" stroke="black" stroke-width="0.9" stroke-linecap="round" stroke-linejoin="round"/>
</svg>
