<svg width="24" height="24" viewBox="0 0 24 24" fill="none" xmlns="http://www.w3.org/2000/svg">
<path d="M21.9598 10.9706C22.0134 11.8008 22.0134 12.6606 21.9598 13.4908C21.6856 17.7331 18.3536 21.1124 14.1706 21.3904C12.7435 21.4853 11.2536 21.4851 9.8294 21.3904C9.33896 21.3578 8.8044 21.2408 8.34401 21.0512C7.83177 20.8402 7.5756 20.7347 7.44544 20.7507C7.31527 20.7667 7.1264 20.906 6.74868 21.1845C6.08268 21.6756 5.24367 22.0284 3.99943 21.9981C3.37026 21.9828 3.05568 21.9751 2.91484 21.735C2.77401 21.4949 2.94941 21.1625 3.30021 20.4977C3.78674 19.5757 4.09501 18.5202 3.62791 17.6745C2.82343 16.4665 2.1401 15.0359 2.04024 13.4908C1.98659 12.6606 1.98659 11.8008 2.04024 10.9706C2.31441 6.72832 5.64639 3.34907 9.8294 3.07101C11.0318 2.99108 11.2812 2.9785 12.5 3.03362" stroke="#141B34" stroke-width="1.5" stroke-linecap="round" stroke-linejoin="round"/>
<path d="M8.5 14.9999H15.5M8.5 9.99994H12" stroke="#141B34" stroke-width="1.5" stroke-linecap="round" stroke-linejoin="round"/>
<path d="M22 5.49994C22 7.43294 20.433 8.99994 18.5 8.99994C16.567 8.99994 15 7.43294 15 5.49994C15 3.56694 16.567 1.99994 18.5 1.99994C20.433 1.99994 22 3.56694 22 5.49994Z" fill="#FF0000" stroke="#141B34" stroke-width="1.5"/>
</svg>
