<svg width="14" height="14" viewBox="0 0 14 14" fill="none" xmlns="http://www.w3.org/2000/svg">
<circle cx="7" cy="7" r="6" fill="#D9FBB0" stroke="#82B5A5" stroke-width="2"/>
<path d="M6.85645 9.87622C6.66895 9.87622 6.52832 9.80884 6.40234 9.65942L4.89062 7.82837C4.78516 7.70825 4.74707 7.59985 4.74707 7.47681C4.74707 7.20142 4.95215 6.99927 5.23633 6.99927C5.40039 6.99927 5.51758 7.05786 5.62598 7.18677L6.8418 8.69556L9.23828 4.91626C9.35547 4.73169 9.47559 4.66138 9.66895 4.66138C9.9502 4.66138 10.1553 4.8606 10.1553 5.13599C10.1553 5.23853 10.123 5.34692 10.0469 5.46411L7.31641 9.63892C7.21094 9.80005 7.05566 9.87622 6.85645 9.87622Z" fill="#234239"/>
</svg>
