<svg width="20" height="17" viewBox="0 0 20 17" fill="none" xmlns="http://www.w3.org/2000/svg">
<path d="M20 8.50018C20 6.37841 19.1571 4.34352 17.6568 2.8432C16.1565 1.34287 14.1216 0.5 11.9998 0.5C9.87805 0.5 7.84318 1.34287 6.34286 2.8432C4.84252 4.34352 3.99965 6.37841 3.99965 8.50018H6.49974C7.32819 8.50018 7.97428 7.80592 8.27773 7.03503C8.47695 6.5289 8.77926 6.06377 9.17131 5.67167C9.92148 4.92152 10.9389 4.50009 11.9998 4.50009C13.0607 4.50009 14.0782 4.92152 14.8283 5.67167C15.5785 6.42184 15.9999 7.4393 15.9999 8.50018H20Z" fill="url(#paint0_linear_120_3033)"/>
<path d="M15.3913 11.5615C15.7934 10.5909 16.0003 9.55057 16.0003 8.5H20C20 12.9184 16.4182 16.5001 11.9998 16.5001C11.3079 16.5001 10.6364 16.4123 9.99607 16.2472C10.3584 16.1538 10.7145 16.035 11.0616 15.8912C12.0323 15.4891 12.9142 14.8999 13.6571 14.157C14.4 13.4141 14.9893 12.5321 15.3913 11.5615Z" fill="#FBCF8E"/>
<path d="M0 8.5C-1.50297e-07 9.55062 0.20693 10.5909 0.608975 11.5616C1.01102 12.5322 1.60031 13.4141 2.3432 14.157C3.08608 14.8999 3.96801 15.4892 4.93864 15.8912C5.90925 16.2933 6.94956 16.5002 8.00018 16.5002C9.05075 16.5002 10.0911 16.2933 11.0617 15.8912C12.0323 15.4892 12.9143 14.8999 13.6571 14.157C14.4 13.4141 14.9893 12.5322 15.3914 11.5616C15.7934 10.5909 16.0004 9.55062 16.0004 8.5H13.5003C12.6718 8.5 12.0257 9.19426 11.7223 9.9651C11.7137 9.98707 11.7048 10.0089 11.6958 10.0308C11.4947 10.5161 11.2001 10.9571 10.8286 11.3285C10.4572 11.6999 10.0162 11.9946 9.53094 12.1956C9.04564 12.3967 8.52549 12.5001 8.00018 12.5001C7.47487 12.5001 6.95472 12.3967 6.46943 12.1956C5.98408 11.9946 5.54315 11.6999 5.17167 11.3285C4.80024 10.9571 4.5056 10.5161 4.30458 10.0308C4.10355 9.54546 4.00009 9.02531 4.00009 8.5H0Z" fill="url(#paint1_linear_120_3033)"/>
<path d="M0.000816345 8.50018C0.000816345 4.08179 3.5826 0.5 8.00095 0.5C8.69274 0.5 9.364 0.587799 10.0043 0.752868C8.63044 1.10678 7.36311 1.823 6.34287 2.8432C4.84255 4.34351 3.99969 6.37841 3.99969 8.50018H0.000816345Z" fill="#73E5E2"/>
<defs>
<linearGradient id="paint0_linear_120_3033" x1="20" y1="4.50009" x2="3.99965" y2="4.50009" gradientUnits="userSpaceOnUse">
<stop stop-color="#73E5E2"/>
<stop offset="1" stop-color="#394F87"/>
</linearGradient>
<linearGradient id="paint1_linear_120_3033" x1="5.24547e-07" y1="12.5001" x2="16.0004" y2="12.5001" gradientUnits="userSpaceOnUse">
<stop stop-color="#FBDC8E"/>
<stop offset="1" stop-color="#FB958E"/>
</linearGradient>
</defs>
</svg>
