<svg width="20" height="20" viewBox="0 0 20 20" fill="none" xmlns="http://www.w3.org/2000/svg">
<path d="M15.8333 4.1665L10 1.6665L4.16666 4.1665L7.08333 5.4165V7.08317C7.08333 7.08317 8.05556 6.6665 10 6.6665C11.9444 6.6665 12.9167 7.08317 12.9167 7.08317V5.4165L15.8333 4.1665ZM15.8333 4.1665V7.49984" stroke="black" stroke-width="1.25" stroke-linecap="round" stroke-linejoin="round"/>
<path d="M12.9167 7.0835V7.91683C12.9167 9.52766 11.6108 10.8335 10 10.8335C8.38917 10.8335 7.08334 9.52766 7.08334 7.91683V7.0835" stroke="black" stroke-width="1.25" stroke-linecap="round" stroke-linejoin="round"/>
<path d="M6.48547 13.9192C5.56848 14.4896 3.16422 15.6543 4.62857 17.1116C5.34391 17.8235 6.1406 18.3327 7.14223 18.3327H12.8577C13.8594 18.3327 14.6561 17.8235 15.3714 17.1116C16.8357 15.6543 14.4315 14.4896 13.5145 13.9192C11.3642 12.5816 8.63575 12.5816 6.48547 13.9192Z" stroke="black" stroke-width="1.25" stroke-linecap="round" stroke-linejoin="round"/>
</svg>
