<svg width="503" height="460" viewBox="0 0 503 460" fill="none" xmlns="http://www.w3.org/2000/svg">
<path d="M192.849 127.379C188.439 127.379 184.209 129.126 181.091 132.234C177.972 135.343 176.22 139.559 176.22 143.955V229.849C176.215 233.72 177.62 237.462 180.176 240.378C182.731 243.294 186.262 245.186 190.112 245.7C190.817 245.801 191.529 245.85 192.242 245.847H343.478C344.191 245.85 344.902 245.801 345.608 245.7C349.459 245.187 352.991 243.296 355.548 240.38C358.104 237.464 359.511 233.721 359.505 229.849V143.933C359.499 139.54 357.745 135.33 354.627 132.226C351.509 129.122 347.282 127.379 342.876 127.379H192.849Z" fill="#252121"/>
<path d="M24.4212 291.557H9.65479V571.791H24.4212V291.557Z" fill="#3F3838"/>
<path d="M39.1878 291.557H24.4214V571.791H39.1878V291.557Z" fill="#252121"/>
<path d="M232.855 291.557H218.088V571.791H232.855V291.557Z" fill="#3F3838"/>
<path d="M247.621 291.557H232.855V571.791H247.621V291.557Z" fill="#252121"/>
<path d="M127.218 291.557H112.451V571.791H127.218V291.557Z" fill="#3F3838"/>
<path d="M141.985 291.557H127.219V571.791H141.985V291.557Z" fill="#252121"/>
<path d="M422.547 289.858H407.78V570.092H422.547V289.858Z" fill="#3F3838"/>
<path d="M437.313 289.858H422.546V570.092H437.313V289.858Z" fill="#252121"/>
<path d="M174.925 283.065H0V304.012H174.925V283.065Z" fill="#3F3838"/>
<path d="M448.671 283.065H132.329V304.012H448.671V283.065Z" fill="#252121"/>
<path d="M238 221.628H229.663V271.493H238V221.628Z" fill="#3F3838"/>
<path d="M238 271.493H321.379V221.628H238V271.493Z" fill="#252121"/>
<path d="M198.528 127.379C194.118 127.379 189.888 129.126 186.77 132.234C183.651 135.343 181.899 139.559 181.899 143.955V229.849C181.893 233.72 183.299 237.462 185.854 240.378C188.41 243.294 191.941 245.186 195.791 245.7C196.496 245.801 197.208 245.85 197.92 245.847H349.157C349.869 245.85 350.581 245.801 351.286 245.7C355.137 245.187 358.67 243.296 361.226 240.38C363.783 237.464 365.189 233.721 365.184 229.849V143.933C365.178 139.54 363.423 135.33 360.305 132.226C357.187 129.122 352.961 127.379 348.555 127.379H198.528Z" fill="#82B5A5"/>
<path d="M221.968 282.997H312.401V274.046H221.968V282.997Z" fill="#252121"/>
<path d="M182.308 234.094C183.051 237.247 184.739 240.1 187.147 242.275C189.555 244.449 192.57 245.841 195.791 246.266H351.287C354.505 245.838 357.517 244.444 359.923 242.271C362.329 240.097 364.015 237.245 364.758 234.094H182.308Z" fill="#252121"/>
<path d="M220.899 242.015C222.317 242.015 223.466 240.869 223.466 239.456C223.466 238.042 222.317 236.897 220.899 236.897C219.481 236.897 218.332 238.042 218.332 239.456C218.332 240.869 219.481 242.015 220.899 242.015Z" fill="#F55F4B"/>
<path d="M213.199 242.015C214.617 242.015 215.766 240.869 215.766 239.456C215.766 238.042 214.617 236.897 213.199 236.897C211.781 236.897 210.632 238.042 210.632 239.456C210.632 240.869 211.781 242.015 213.199 242.015Z" fill="#F55F4B"/>
<path d="M205.503 242.015C206.921 242.015 208.07 240.869 208.07 239.456C208.07 238.042 206.921 236.897 205.503 236.897C204.085 236.897 202.936 238.042 202.936 239.456C202.936 240.869 204.085 242.015 205.503 242.015Z" fill="#F55F4B"/>
<path d="M239.005 282.997H350.577V274.046H239.005V282.997Z" fill="#3F3838"/>
<path d="M340.921 452.886L401.886 400.928L334.785 322.696L273.82 374.654L340.921 452.886Z" fill="#F55F4B"/>
<path d="M449.58 464.13L406.014 505.819L350.73 448.272L394.632 407.137L449.58 464.13Z" fill="#F0B6BB"/>
<path d="M473.597 483.684L387.333 566.254C382.42 570.959 374.515 565.733 376.962 559.387L397.641 505.605L385.629 504.053L409.687 481.029L414.799 491.785C424.874 485.943 437.414 475.894 443.536 457.852C443.559 457.846 460.421 462.613 473.597 483.684Z" fill="#82B5A5"/>
<path d="M397.825 388.485L331.041 445.402L349.38 466.783L416.164 409.866L397.825 388.485Z" fill="#F55F4B"/>
<path d="M336.749 452.037L403.532 395.119" stroke="#252121" stroke-miterlimit="10"/>
<path d="M310.577 528.006L250.279 531.46L245.798 451.907L305.983 449.094L310.577 528.006Z" fill="#F0B6BB"/>
<path d="M447.887 306.276H308.072C272.769 306.276 243.895 335.069 243.895 370.249V469.684C243.899 471.106 244.468 472.468 245.476 473.474C246.485 474.479 247.852 475.046 249.279 475.051H309.69C311.117 475.046 312.485 474.479 313.494 473.474C314.504 472.469 315.074 471.106 315.08 469.684V377.257H421.284C430.193 377.241 438.733 373.708 445.036 367.432C451.339 361.155 454.892 352.646 454.918 343.765V313.279C454.918 312.359 454.736 311.448 454.382 310.598C454.029 309.748 453.511 308.976 452.858 308.325C452.205 307.675 451.43 307.159 450.577 306.807C449.724 306.456 448.81 306.275 447.887 306.276Z" fill="#FF7989"/>
<path d="M320.814 458.692L232.954 459.655L233.264 487.784L321.124 486.821L320.814 458.692Z" fill="#F55F4B"/>
<path d="M432.373 151.944L400.087 151.051L398.983 190.676L431.27 191.569L432.373 151.944Z" fill="#F0B6BB"/>
<path d="M405.485 175.63C423.474 175.63 438.057 161.094 438.057 143.163C438.057 125.231 423.474 110.695 405.485 110.695C387.497 110.695 372.914 125.231 372.914 143.163C372.914 161.094 387.497 175.63 405.485 175.63Z" fill="#F0B6BB"/>
<path d="M381.78 144.55C382.843 144.55 383.705 143.691 383.705 142.631C383.705 141.571 382.843 140.711 381.78 140.711C380.716 140.711 379.854 141.571 379.854 142.631C379.854 143.691 380.716 144.55 381.78 144.55Z" fill="#252121"/>
<path d="M375.725 140.627L371.744 152.595L379.23 156.874" stroke="#252121" stroke-miterlimit="10"/>
<path d="M456.054 315.521L361.907 313.324L375.379 235.968C379.525 215.191 391.281 182.605 410.296 184.62L423.023 185.962C443.327 188.108 457.06 223.74 454.907 243.979L456.054 315.521Z" fill="#FCF0E3"/>
<path d="M399.438 175.07C399.438 175.07 419.117 180.165 432.117 161.851L431.765 174.481L399.279 180.708L399.438 175.07Z" fill="#DD9BA3"/>
<path d="M379.95 163.328C379.95 163.328 387.987 166.906 393.933 160.679" stroke="#252121" stroke-miterlimit="10"/>
<path d="M385.012 129.061L385.661 129.083L385.701 129.464L385.012 129.061Z" fill="#F0B6BB"/>
<path d="M261.371 343.561C263.563 343.561 263.569 340.165 261.371 340.165C259.173 340.165 259.173 343.561 261.371 343.561Z" fill="#6A88F8"/>
<path d="M315.082 377.257V422.78L388.834 376.782L315.082 377.257Z" fill="#252121"/>
<path d="M345.228 404.109H460.031C464.281 404.109 467.726 400.674 467.726 396.438V384.928C467.726 380.692 464.281 377.257 460.031 377.257H345.228C340.977 377.257 337.532 380.692 337.532 384.928V396.438C337.532 400.674 340.977 404.109 345.228 404.109Z" fill="#252121"/>
<path d="M399.102 538.689C399.102 540.631 400.682 542.205 402.629 542.205C404.577 542.205 406.156 540.631 406.156 538.689V396.761C406.156 394.819 404.577 393.245 402.629 393.245C400.682 393.245 399.102 394.819 399.102 396.761V538.689Z" fill="#252121"/>
<path d="M415.129 338.896H312.44C304.294 338.896 296.482 342.122 290.722 347.864C284.962 353.605 281.726 361.393 281.726 369.513V458.452" stroke="#252121" stroke-miterlimit="10"/>
<path d="M315.08 458.87L243.878 459.544V445.029L315.08 458.87Z" fill="#252121"/>
<path d="M332.794 443.432L378.877 404.109L324.57 434.986L332.794 443.432Z" fill="#252121"/>
<path d="M412.927 205.94L411.299 203.911C404.748 195.749 392.8 194.426 384.612 200.955L325.061 248.445C316.873 254.974 315.546 266.884 322.096 275.046L323.725 277.075C330.275 285.237 342.223 286.56 350.411 280.031L409.962 232.541C418.15 226.012 419.478 214.102 412.927 205.94Z" fill="#F0B6BB"/>
<path d="M260.315 241.93C260.315 241.93 231.452 227.595 213.824 243.339C211.73 245.212 210.213 247.64 209.451 250.339C208.689 253.039 208.712 255.899 209.519 258.585L210.689 262.503C212.137 267.338 217.504 271.957 221.94 269.54C234.269 262.82 240.937 276.73 248.377 281.361C248.377 281.361 262.348 281.242 261.207 282C261.031 282.114 260.315 241.93 260.315 241.93Z" fill="#F0B6BB"/>
<path d="M357.463 268.693L357.544 266.672C357.97 256.06 349.685 247.113 339.04 246.689L259.829 243.53C249.184 243.106 240.208 251.364 239.782 261.976L239.701 263.997C239.275 274.609 247.56 283.556 258.206 283.98L337.416 287.139C348.062 287.563 357.037 279.305 357.463 268.693Z" fill="#F0B6BB"/>
<path d="M384.109 256.181L356.694 216.773L385.424 196.913C390.666 193.289 397.137 191.89 403.414 193.022C409.691 194.155 415.26 197.727 418.895 202.952C422.53 208.177 423.934 214.628 422.798 220.885C421.661 227.142 418.078 232.693 412.836 236.316L384.106 256.176L384.109 256.181Z" fill="#6A88F8"/>
<path d="M330.149 244.37L336.231 257.068L322.289 244.37H330.149Z" fill="#252121"/>
<path d="M402.039 309.503H481.476C486.642 309.503 490.83 305.328 490.83 300.179V220.994C490.83 215.845 486.642 211.67 481.476 211.67H402.039C396.873 211.67 392.685 215.845 392.685 220.994V300.179C392.685 305.328 396.873 309.503 402.039 309.503Z" fill="#252121"/>
<path d="M414.209 309.503H493.646C498.812 309.503 503 305.328 503 300.179V220.994C503 215.845 498.812 211.67 493.646 211.67H414.209C409.042 211.67 404.855 215.845 404.855 220.994V300.179C404.855 305.328 409.042 309.503 414.209 309.503Z" fill="#3F3838"/>
<path d="M445.747 394.722C464.574 381.56 473.417 357.924 471.304 326.396C470.246 311.679 467.34 297.152 462.654 283.155L454.805 285.986L458.73 284.588L454.8 285.986C455.066 286.722 480.794 360.081 440.942 387.952L445.747 394.722Z" fill="#3F3838"/>
<path d="M379.997 404.109H461.178C464.794 404.109 467.726 401.186 467.726 397.581V383.785C467.726 380.18 464.794 377.257 461.178 377.257H379.997C376.38 377.257 373.448 380.18 373.448 383.785V397.581C373.448 401.186 376.38 404.109 379.997 404.109Z" fill="#3F3838"/>
<path d="M315.082 317.802L331.699 332.318" stroke="#FCD343" stroke-miterlimit="10" stroke-linecap="round"/>
<path d="M446.138 338.828L427.964 360.341" stroke="#FCD343" stroke-miterlimit="10" stroke-linecap="round"/>
<path d="M371.739 354.68L384.801 368.833" stroke="#FCD343" stroke-miterlimit="10" stroke-linecap="round"/>
<path d="M339.366 315.617L343.91 325.241" stroke="#FCD343" stroke-miterlimit="10" stroke-linecap="round"/>
<path d="M403.544 325.241L379.69 332.035" stroke="#FCD343" stroke-miterlimit="10" stroke-linecap="round"/>
<path d="M265.534 332.035L274.053 342.225" stroke="#FCD343" stroke-miterlimit="10" stroke-linecap="round"/>
<path d="M339.367 354.68L322.896 368.833" stroke="#FCD343" stroke-miterlimit="10" stroke-linecap="round"/>
<path d="M296.203 368.833L303.586 391.479" stroke="#FCD343" stroke-miterlimit="10" stroke-linecap="round"/>
<path d="M258.719 388.082L265.534 403.933" stroke="#FCD343" stroke-miterlimit="10" stroke-linecap="round"/>
<path d="M301.315 422.616L293.364 431.674" stroke="#FCD343" stroke-miterlimit="10" stroke-linecap="round"/>
<path d="M255.879 420.351L265.534 435.07" stroke="#FCD343" stroke-miterlimit="10" stroke-linecap="round"/>
<path d="M265.534 361.474L255.879 368.833" stroke="#FCD343" stroke-miterlimit="10" stroke-linecap="round"/>
<path d="M288.252 320.146V332.035" stroke="#FCD343" stroke-miterlimit="10" stroke-linecap="round"/>
<path d="M341.639 415.256L331.7 423.929" stroke="#FCD343" stroke-miterlimit="10" stroke-linecap="round"/>
<path d="M97.6852 96.2419H9.65479V280.234H97.6852V96.2419Z" fill="#252121"/>
<path d="M75.5356 280.234H162.43L162.43 96.2421H75.5356L75.5356 280.234Z" fill="#3F3838"/>
<path d="M155.047 121.718H84.623V127.379H155.047V121.718Z" fill="#252121"/>
<path d="M155.047 134.739H84.623V140.4H155.047V134.739Z" fill="#252121"/>
<path d="M155.047 167.574H84.623V173.236H155.047V167.574Z" fill="#252121"/>
<path d="M102.768 187.1C104.186 187.1 105.335 185.954 105.335 184.541C105.335 183.128 104.186 181.982 102.768 181.982C101.351 181.982 100.201 183.128 100.201 184.541C100.201 185.954 101.351 187.1 102.768 187.1Z" fill="#F55F4B"/>
<path d="M95.0666 187.1C96.4844 187.1 97.6337 185.954 97.6337 184.541C97.6337 183.128 96.4844 181.982 95.0666 181.982C93.6488 181.982 92.4995 183.128 92.4995 184.541C92.4995 185.954 93.6488 187.1 95.0666 187.1Z" fill="#F55F4B"/>
<path d="M87.3713 187.1C88.789 187.1 89.9383 185.954 89.9383 184.541C89.9383 183.128 88.789 181.982 87.3713 181.982C85.9535 181.982 84.8042 183.128 84.8042 184.541C84.8042 185.954 85.9535 187.1 87.3713 187.1Z" fill="#F55F4B"/>
<path d="M374.272 124.548C374.272 124.548 368.592 135.871 395.853 134.173C423.114 132.474 415.731 129.077 415.731 129.077C415.731 129.077 383.359 178.897 413.459 188.521C443.56 198.145 466.278 159.648 456.055 146.061C445.832 132.474 450.943 128.511 444.128 118.887C437.313 109.263 397.557 86.0517 374.272 124.548Z" fill="#252121"/>
<path d="M415.595 128.438L412.63 126.74L406.383 137.575L409.347 139.274L415.595 128.438Z" fill="#FCD343"/>
<path d="M409.319 128.438L406.354 126.74L400.107 137.575L403.071 139.274L409.319 128.438Z" fill="#FCD343"/>
<path d="M362.344 36.7984C362.344 46.558 358.455 55.9178 351.532 62.8188C344.609 69.7199 335.219 73.5968 325.428 73.5968H236.977C241.061 88.2256 247.961 112.773 248.757 114.358C249.688 116.215 228.799 84.8741 221.291 73.5968H176.628C166.838 73.5968 157.448 69.7199 150.525 62.8188C143.602 55.9178 139.712 46.558 139.712 36.7984C139.712 27.0389 143.602 17.679 150.525 10.778C157.448 3.87696 166.838 0 176.628 0H325.428C335.219 0 344.609 3.87696 351.532 10.778C358.455 17.679 362.344 27.0389 362.344 36.7984Z" fill="#FCF0E3"/>
</svg>
