<svg width="176" height="159" viewBox="0 0 176 159" fill="none" xmlns="http://www.w3.org/2000/svg">
<path d="M37.0218 20.0146L26.1045 0.436035L15.1201 22.19L17.2015 158.998H35.0075L37.0218 20.0146Z" fill="#F55F4B"/>
<path opacity="0.6" d="M37.0218 19.5786L26.1045 0L15.1201 21.754L17.2015 158.562H35.0075L37.0218 19.5786Z" fill="white"/>
<path d="M53.9956 27.0377L64.9129 0.436035L75.8973 22.19L73.8159 158.998H56.0099L53.9956 27.0377Z" fill="#F55F4B"/>
<path opacity="0.6" d="M53.9956 27.0377L64.9129 0.436035L75.8973 22.19L73.8159 158.998H56.0099L53.9956 27.0377Z" fill="white"/>
<path d="M97.8794 20.0146L108.797 0.436035L119.781 22.19L117.7 158.998H99.8936L97.8794 20.0146Z" fill="#F55F4B"/>
<path opacity="0.6" d="M97.8794 20.0146L108.797 0.436035L119.781 22.19L117.7 158.998H99.8936L97.8794 20.0146Z" fill="white"/>
<path d="M168.338 27.0377L157.421 0.436035L146.437 22.19L148.518 158.998H166.324L168.338 27.0377Z" fill="#F55F4B"/>
<path opacity="0.6" d="M168.338 27.0377L157.421 0.436035L146.437 22.19L148.518 158.998H166.324L168.338 27.0377Z" fill="white"/>
<g opacity="0.5">
<path d="M15.8858 72.6002L36.27 71.6602L36.5789 50.0674L15.5635 51.3699L15.8858 72.6002Z" fill="#F55F4B"/>
<path d="M54.6669 70.8278L75.172 69.8878L75.5077 47.6504L54.3312 48.9529L54.6669 70.8278Z" fill="#F55F4B"/>
<path d="M98.5911 68.8134L119.083 67.86L119.432 44.9243L98.2688 46.2403L98.5911 68.8134Z" fill="#F55F4B"/>
<path d="M146.759 43.2325L147.108 66.571L167.747 65.631L168.123 41.9165L146.759 43.2325Z" fill="#F55F4B"/>
</g>
<path d="M174.032 58.3795L0.322278 66.356L0 45.3808L175.321 34.5039L174.032 58.3795Z" fill="#F55F4B"/>
<path opacity="0.6" d="M174.032 58.3795L0.322278 66.356L0 45.3808L175.321 34.5039L174.032 58.3795Z" fill="white"/>
</svg>
