<svg width="86" height="153" viewBox="0 0 86 153" fill="none" xmlns="http://www.w3.org/2000/svg">
<path fill-rule="evenodd" clip-rule="evenodd" d="M36.1059 43.0935C76.0295 -3.25917 114.99 65.3043 55.3458 76.4095C114.99 87.9978 75.5485 156.078 36.1059 109.725C56.3079 167.666 -22.096 167.183 -1.89362 109.725C-41.8173 156.078 -80.7788 87.9978 -21.134 76.4095C-81.2598 65.3043 -41.8173 -2.77634 -1.89362 43.0935C-22.577 -14.3645 56.3079 -14.3645 36.1059 43.0935ZM16.8653 67.7185C21.6758 67.7185 26.0045 71.5812 26.0045 76.4095C26.0045 81.2378 21.6758 85.5837 16.8653 85.5837C12.0555 85.5837 8.20708 81.2378 8.20708 76.4095C8.20708 71.5812 12.0555 67.7185 16.8653 67.7185Z" fill="#FF7989"/>
</svg>
