<svg width="300" height="112" viewBox="0 0 300 112" fill="none" xmlns="http://www.w3.org/2000/svg">
<path d="M7 103.714L7 9.71436" stroke="#CCCCCC" stroke-width="4" stroke-linecap="round"/>
<circle cx="7" cy="8" r="6" fill="#D9D9D9" stroke="#CCCCCC" stroke-width="2"/>
<path d="M30.964 12V4.824H28.06V3.54H35.404V4.824H32.5V12H30.964ZM37.6548 12.12C37.1668 12.12 36.7628 12.032 36.4428 11.856C36.1228 11.672 35.8828 11.4 35.7228 11.04C35.5708 10.68 35.4948 10.232 35.4948 9.696V6.132H36.9948V9.72C36.9948 9.992 37.0308 10.22 37.1028 10.404C37.1828 10.588 37.2988 10.724 37.4508 10.812C37.6108 10.9 37.8108 10.944 38.0508 10.944C38.3228 10.944 38.5588 10.884 38.7588 10.764C38.9668 10.636 39.1268 10.46 39.2388 10.236C39.3588 10.004 39.4188 9.736 39.4188 9.432V6.132H40.9188V12H39.4548V10.776H39.6228C39.4548 11.208 39.1988 11.54 38.8548 11.772C38.5188 12.004 38.1188 12.12 37.6548 12.12ZM42.584 4.872V3.408H44.264V4.872H42.584ZM42.68 12V6.132H44.18V12H42.68ZM48.6266 12.12C47.8426 12.12 47.2586 11.924 46.8746 11.532C46.4906 11.14 46.2986 10.568 46.2986 9.816V7.26H45.1706V6.132H46.2986V4.38H47.7986V6.132H49.5746V7.26H47.7986V9.732C47.7986 10.116 47.8826 10.404 48.0506 10.596C48.2186 10.788 48.4906 10.884 48.8666 10.884C48.9786 10.884 49.0946 10.872 49.2146 10.848C49.3346 10.816 49.4586 10.784 49.5866 10.752L49.8146 11.856C49.6706 11.936 49.4866 12 49.2626 12.048C49.0466 12.096 48.8346 12.12 48.6266 12.12ZM50.6481 4.872V3.408H52.3281V4.872H50.6481ZM50.7441 12V6.132H52.2441V12H50.7441ZM56.6787 12.12C56.0707 12.12 55.5427 11.996 55.0947 11.748C54.6467 11.5 54.2987 11.148 54.0507 10.692C53.8027 10.228 53.6787 9.684 53.6787 9.06C53.6787 8.436 53.8027 7.896 54.0507 7.44C54.2987 6.984 54.6467 6.632 55.0947 6.384C55.5427 6.136 56.0707 6.012 56.6787 6.012C57.2867 6.012 57.8147 6.136 58.2627 6.384C58.7107 6.632 59.0587 6.984 59.3067 7.44C59.5547 7.896 59.6787 8.436 59.6787 9.06C59.6787 9.684 59.5547 10.228 59.3067 10.692C59.0587 11.148 58.7107 11.5 58.2627 11.748C57.8147 11.996 57.2867 12.12 56.6787 12.12ZM56.6787 10.98C57.1267 10.98 57.4867 10.82 57.7587 10.5C58.0307 10.172 58.1667 9.692 58.1667 9.06C58.1667 8.42 58.0307 7.944 57.7587 7.632C57.4867 7.312 57.1267 7.152 56.6787 7.152C56.2307 7.152 55.8707 7.312 55.5987 7.632C55.3267 7.944 55.1907 8.42 55.1907 9.06C55.1907 9.692 55.3267 10.172 55.5987 10.5C55.8707 10.82 56.2307 10.98 56.6787 10.98ZM61.1167 12V6.132H62.5807V7.308H62.4487C62.6247 6.884 62.8967 6.564 63.2647 6.348C63.6407 6.124 64.0647 6.012 64.5367 6.012C65.0087 6.012 65.3967 6.1 65.7007 6.276C66.0047 6.452 66.2327 6.72 66.3847 7.08C66.5367 7.432 66.6127 7.88 66.6127 8.424V12H65.1127V8.496C65.1127 8.192 65.0727 7.944 64.9927 7.752C64.9207 7.56 64.8047 7.42 64.6447 7.332C64.4927 7.236 64.2967 7.188 64.0567 7.188C63.7687 7.188 63.5167 7.252 63.3007 7.38C63.0847 7.5 62.9167 7.676 62.7967 7.908C62.6767 8.132 62.6167 8.396 62.6167 8.7V12H61.1167ZM71.9146 12V3.54H75.5866C76.2106 3.54 76.7386 3.644 77.1706 3.852C77.6026 4.06 77.9306 4.36 78.1546 4.752C78.3786 5.144 78.4906 5.62 78.4906 6.18C78.4906 6.732 78.3786 7.208 78.1546 7.608C77.9306 8 77.6026 8.304 77.1706 8.52C76.7386 8.728 76.2106 8.832 75.5866 8.832H73.4506V12H71.9146ZM73.4506 7.62H75.3466C75.8906 7.62 76.3026 7.5 76.5826 7.26C76.8626 7.012 77.0026 6.652 77.0026 6.18C77.0026 5.708 76.8626 5.352 76.5826 5.112C76.3026 4.872 75.8906 4.752 75.3466 4.752H73.4506V7.62ZM81.4495 12.12C81.0255 12.12 80.6455 12.04 80.3095 11.88C79.9815 11.712 79.7215 11.488 79.5295 11.208C79.3455 10.928 79.2535 10.612 79.2535 10.26C79.2535 9.828 79.3655 9.488 79.5895 9.24C79.8135 8.984 80.1775 8.8 80.6815 8.688C81.1855 8.576 81.8615 8.52 82.7095 8.52H83.3095V9.384H82.7215C82.3455 9.384 82.0295 9.4 81.7735 9.432C81.5175 9.456 81.3095 9.5 81.1495 9.564C80.9975 9.62 80.8855 9.7 80.8135 9.804C80.7495 9.908 80.7175 10.036 80.7175 10.188C80.7175 10.452 80.8095 10.668 80.9935 10.836C81.1775 11.004 81.4335 11.088 81.7615 11.088C82.0255 11.088 82.2575 11.028 82.4575 10.908C82.6655 10.78 82.8295 10.608 82.9495 10.392C83.0695 10.176 83.1295 9.928 83.1295 9.648V8.268C83.1295 7.868 83.0415 7.58 82.8655 7.404C82.6895 7.228 82.3935 7.14 81.9775 7.14C81.6495 7.14 81.3135 7.192 80.9695 7.296C80.6255 7.392 80.2775 7.544 79.9255 7.752L79.4935 6.732C79.7015 6.588 79.9455 6.464 80.2255 6.36C80.5135 6.248 80.8135 6.164 81.1255 6.108C81.4455 6.044 81.7455 6.012 82.0255 6.012C82.6015 6.012 83.0735 6.1 83.4415 6.276C83.8175 6.452 84.0975 6.72 84.2815 7.08C84.4655 7.432 84.5575 7.888 84.5575 8.448V12H83.1535V10.752H83.2495C83.1935 11.032 83.0815 11.276 82.9135 11.484C82.7535 11.684 82.5495 11.84 82.3015 11.952C82.0535 12.064 81.7695 12.12 81.4495 12.12ZM86.7494 14.16L87.9734 11.46V12.084L85.3934 6.132H86.9894L88.8134 10.68H88.4534L90.3134 6.132H91.8254L88.2974 14.16H86.7494ZM92.7618 12V6.132H94.2258V7.308H94.0938C94.1978 7.036 94.3418 6.804 94.5258 6.612C94.7098 6.42 94.9298 6.272 95.1858 6.168C95.4418 6.064 95.7258 6.012 96.0378 6.012C96.5098 6.012 96.8978 6.124 97.2018 6.348C97.5058 6.572 97.7178 6.916 97.8378 7.38H97.6698C97.8298 6.956 98.0938 6.624 98.4618 6.384C98.8298 6.136 99.2538 6.012 99.7338 6.012C100.182 6.012 100.55 6.1 100.838 6.276C101.134 6.452 101.354 6.72 101.498 7.08C101.642 7.432 101.714 7.88 101.714 8.424V12H100.214V8.484C100.214 8.036 100.138 7.708 99.9858 7.5C99.8418 7.292 99.5938 7.188 99.2418 7.188C98.9858 7.188 98.7618 7.252 98.5698 7.38C98.3778 7.5 98.2298 7.676 98.1258 7.908C98.0298 8.14 97.9818 8.42 97.9818 8.748V12H96.4818V8.484C96.4818 8.036 96.4058 7.708 96.2538 7.5C96.1098 7.292 95.8658 7.188 95.5218 7.188C95.2578 7.188 95.0298 7.252 94.8378 7.38C94.6538 7.5 94.5098 7.676 94.4058 7.908C94.3098 8.14 94.2618 8.42 94.2618 8.748V12H92.7618ZM106.353 12.12C105.689 12.12 105.117 11.996 104.637 11.748C104.157 11.5 103.785 11.148 103.521 10.692C103.265 10.236 103.137 9.696 103.137 9.072C103.137 8.464 103.261 7.932 103.509 7.476C103.765 7.02 104.113 6.664 104.553 6.408C105.001 6.144 105.509 6.012 106.077 6.012C106.637 6.012 107.117 6.132 107.517 6.372C107.917 6.612 108.225 6.952 108.441 7.392C108.665 7.832 108.777 8.356 108.777 8.964V9.408H104.349V8.544H107.721L107.529 8.724C107.529 8.18 107.409 7.764 107.169 7.476C106.929 7.18 106.585 7.032 106.137 7.032C105.801 7.032 105.513 7.112 105.273 7.272C105.041 7.424 104.861 7.644 104.733 7.932C104.613 8.212 104.553 8.548 104.553 8.94V9.024C104.553 9.464 104.621 9.828 104.757 10.116C104.893 10.404 105.097 10.62 105.369 10.764C105.641 10.908 105.977 10.98 106.377 10.98C106.705 10.98 107.033 10.932 107.361 10.836C107.689 10.732 107.989 10.572 108.261 10.356L108.681 11.364C108.401 11.596 108.049 11.78 107.625 11.916C107.201 12.052 106.777 12.12 106.353 12.12ZM110.165 12V6.132H111.629V7.308H111.497C111.673 6.884 111.945 6.564 112.313 6.348C112.689 6.124 113.113 6.012 113.585 6.012C114.057 6.012 114.445 6.1 114.749 6.276C115.053 6.452 115.281 6.72 115.433 7.08C115.585 7.432 115.661 7.88 115.661 8.424V12H114.161V8.496C114.161 8.192 114.121 7.944 114.041 7.752C113.969 7.56 113.853 7.42 113.693 7.332C113.541 7.236 113.345 7.188 113.105 7.188C112.817 7.188 112.565 7.252 112.349 7.38C112.133 7.5 111.965 7.676 111.845 7.908C111.725 8.132 111.665 8.396 111.665 8.7V12H110.165ZM120.073 12.12C119.289 12.12 118.705 11.924 118.321 11.532C117.937 11.14 117.745 10.568 117.745 9.816V7.26H116.617V6.132H117.745V4.38H119.245V6.132H121.021V7.26H119.245V9.732C119.245 10.116 119.329 10.404 119.497 10.596C119.665 10.788 119.937 10.884 120.313 10.884C120.425 10.884 120.541 10.872 120.661 10.848C120.781 10.816 120.905 10.784 121.033 10.752L121.261 11.856C121.117 11.936 120.933 12 120.709 12.048C120.493 12.096 120.281 12.12 120.073 12.12Z" fill="black"/>
<path d="M223.747 12V3.54H227.419C228.347 3.54 229.063 3.764 229.567 4.212C230.071 4.652 230.323 5.272 230.323 6.072C230.323 6.592 230.207 7.04 229.975 7.416C229.751 7.792 229.423 8.08 228.991 8.28C228.559 8.48 228.035 8.58 227.419 8.58L227.527 8.4H227.923C228.251 8.4 228.535 8.48 228.775 8.64C229.023 8.8 229.239 9.052 229.423 9.396L230.839 12H229.147L227.683 9.3C227.587 9.124 227.479 8.988 227.359 8.892C227.239 8.788 227.103 8.716 226.951 8.676C226.799 8.636 226.623 8.616 226.423 8.616H225.283V12H223.747ZM225.283 7.476H227.155C227.707 7.476 228.123 7.364 228.403 7.14C228.691 6.908 228.835 6.564 228.835 6.108C228.835 5.66 228.691 5.324 228.403 5.1C228.123 4.868 227.707 4.752 227.155 4.752H225.283V7.476ZM232.03 14.16V6.132H233.494V7.368H233.374C233.494 6.96 233.738 6.632 234.106 6.384C234.482 6.136 234.918 6.012 235.414 6.012C235.926 6.012 236.374 6.136 236.758 6.384C237.15 6.632 237.454 6.984 237.67 7.44C237.886 7.888 237.994 8.428 237.994 9.06C237.994 9.684 237.886 10.228 237.67 10.692C237.454 11.148 237.154 11.5 236.77 11.748C236.386 11.996 235.934 12.12 235.414 12.12C234.926 12.12 234.498 12 234.13 11.76C233.762 11.512 233.514 11.192 233.386 10.8H233.53V14.16H232.03ZM234.994 10.98C235.442 10.98 235.802 10.82 236.074 10.5C236.346 10.172 236.482 9.692 236.482 9.06C236.482 8.42 236.346 7.944 236.074 7.632C235.802 7.312 235.442 7.152 234.994 7.152C234.546 7.152 234.186 7.312 233.914 7.632C233.642 7.944 233.506 8.42 233.506 9.06C233.506 9.692 233.642 10.172 233.914 10.5C234.186 10.82 234.546 10.98 234.994 10.98ZM243.388 12V10.728H245.296V4.836H246.04L243.82 6.18L243.22 5.052L245.74 3.54H246.832V10.728H248.62V12H243.388ZM250.855 13.596L250.243 13.116C250.419 12.94 250.555 12.772 250.651 12.612C250.747 12.46 250.815 12.304 250.855 12.144C250.903 11.984 250.927 11.82 250.927 11.652L251.251 12H250.123V10.332H251.803V11.436C251.803 11.708 251.771 11.964 251.707 12.204C251.651 12.444 251.555 12.676 251.419 12.9C251.283 13.132 251.095 13.364 250.855 13.596ZM256.324 12.12C255.956 12.12 255.592 12.08 255.232 12C254.88 11.92 254.548 11.808 254.236 11.664C253.932 11.52 253.668 11.352 253.444 11.16L253.948 9.984C254.316 10.264 254.696 10.476 255.088 10.62C255.48 10.756 255.884 10.824 256.3 10.824C256.804 10.824 257.196 10.696 257.476 10.44C257.764 10.176 257.908 9.824 257.908 9.384C257.908 8.936 257.772 8.576 257.5 8.304C257.228 8.024 256.856 7.884 256.384 7.884C256.04 7.884 255.732 7.952 255.46 8.088C255.188 8.216 254.94 8.416 254.716 8.688H253.684V3.54H258.88V4.812H255.184V7.5H254.788C254.996 7.22 255.268 7.004 255.604 6.852C255.948 6.7 256.328 6.624 256.744 6.624C257.28 6.624 257.744 6.74 258.136 6.972C258.536 7.196 258.844 7.512 259.06 7.92C259.284 8.32 259.396 8.788 259.396 9.324C259.396 9.876 259.272 10.364 259.024 10.788C258.776 11.204 258.42 11.532 257.956 11.772C257.5 12.004 256.956 12.12 256.324 12.12ZM263.647 12.12C262.983 12.12 262.419 11.952 261.955 11.616C261.499 11.272 261.151 10.776 260.911 10.128C260.679 9.48 260.563 8.688 260.563 7.752C260.563 6.808 260.679 6.016 260.911 5.376C261.151 4.728 261.499 4.24 261.955 3.912C262.419 3.584 262.983 3.42 263.647 3.42C264.319 3.42 264.883 3.584 265.339 3.912C265.803 4.24 266.151 4.724 266.383 5.364C266.615 6.004 266.731 6.796 266.731 7.74C266.731 8.676 266.611 9.472 266.371 10.128C266.139 10.776 265.795 11.272 265.339 11.616C264.883 11.952 264.319 12.12 263.647 12.12ZM263.647 10.86C264.191 10.86 264.591 10.612 264.847 10.116C265.111 9.612 265.243 8.82 265.243 7.74C265.243 6.668 265.111 5.892 264.847 5.412C264.591 4.924 264.191 4.68 263.647 4.68C263.111 4.68 262.711 4.924 262.447 5.412C262.183 5.892 262.051 6.672 262.051 7.752C262.051 8.824 262.183 9.612 262.447 10.116C262.711 10.612 263.111 10.86 263.647 10.86ZM271.042 12.12C270.378 12.12 269.814 11.952 269.35 11.616C268.894 11.272 268.546 10.776 268.306 10.128C268.074 9.48 267.958 8.688 267.958 7.752C267.958 6.808 268.074 6.016 268.306 5.376C268.546 4.728 268.894 4.24 269.35 3.912C269.814 3.584 270.378 3.42 271.042 3.42C271.714 3.42 272.278 3.584 272.734 3.912C273.198 4.24 273.546 4.724 273.778 5.364C274.01 6.004 274.126 6.796 274.126 7.74C274.126 8.676 274.006 9.472 273.766 10.128C273.534 10.776 273.19 11.272 272.734 11.616C272.278 11.952 271.714 12.12 271.042 12.12ZM271.042 10.86C271.586 10.86 271.986 10.612 272.242 10.116C272.506 9.612 272.638 8.82 272.638 7.74C272.638 6.668 272.506 5.892 272.242 5.412C271.986 4.924 271.586 4.68 271.042 4.68C270.506 4.68 270.106 4.924 269.842 5.412C269.578 5.892 269.446 6.672 269.446 7.752C269.446 8.824 269.578 9.612 269.842 10.116C270.106 10.612 270.506 10.86 271.042 10.86ZM276.217 13.596L275.605 13.116C275.781 12.94 275.917 12.772 276.013 12.612C276.109 12.46 276.177 12.304 276.217 12.144C276.265 11.984 276.289 11.82 276.289 11.652L276.613 12H275.485V10.332H277.165V11.436C277.165 11.708 277.133 11.964 277.069 12.204C277.013 12.444 276.917 12.676 276.781 12.9C276.645 13.132 276.457 13.364 276.217 13.596ZM281.614 12.12C280.95 12.12 280.386 11.952 279.922 11.616C279.466 11.272 279.118 10.776 278.878 10.128C278.646 9.48 278.53 8.688 278.53 7.752C278.53 6.808 278.646 6.016 278.878 5.376C279.118 4.728 279.466 4.24 279.922 3.912C280.386 3.584 280.95 3.42 281.614 3.42C282.286 3.42 282.85 3.584 283.306 3.912C283.77 4.24 284.118 4.724 284.35 5.364C284.582 6.004 284.698 6.796 284.698 7.74C284.698 8.676 284.578 9.472 284.338 10.128C284.106 10.776 283.762 11.272 283.306 11.616C282.85 11.952 282.286 12.12 281.614 12.12ZM281.614 10.86C282.158 10.86 282.558 10.612 282.814 10.116C283.078 9.612 283.21 8.82 283.21 7.74C283.21 6.668 283.078 5.892 282.814 5.412C282.558 4.924 282.158 4.68 281.614 4.68C281.078 4.68 280.678 4.924 280.414 5.412C280.15 5.892 280.018 6.672 280.018 7.752C280.018 8.824 280.15 9.612 280.414 10.116C280.678 10.612 281.078 10.86 281.614 10.86ZM289.009 12.12C288.345 12.12 287.781 11.952 287.317 11.616C286.861 11.272 286.513 10.776 286.273 10.128C286.041 9.48 285.925 8.688 285.925 7.752C285.925 6.808 286.041 6.016 286.273 5.376C286.513 4.728 286.861 4.24 287.317 3.912C287.781 3.584 288.345 3.42 289.009 3.42C289.681 3.42 290.245 3.584 290.701 3.912C291.165 4.24 291.513 4.724 291.745 5.364C291.977 6.004 292.093 6.796 292.093 7.74C292.093 8.676 291.973 9.472 291.733 10.128C291.501 10.776 291.157 11.272 290.701 11.616C290.245 11.952 289.681 12.12 289.009 12.12ZM289.009 10.86C289.553 10.86 289.953 10.612 290.209 10.116C290.473 9.612 290.605 8.82 290.605 7.74C290.605 6.668 290.473 5.892 290.209 5.412C289.953 4.924 289.553 4.68 289.009 4.68C288.473 4.68 288.073 4.924 287.809 5.412C287.545 5.892 287.413 6.672 287.413 7.752C287.413 8.824 287.545 9.612 287.809 10.116C288.073 10.612 288.473 10.86 289.009 10.86ZM296.405 12.12C295.741 12.12 295.177 11.952 294.713 11.616C294.257 11.272 293.909 10.776 293.669 10.128C293.437 9.48 293.321 8.688 293.321 7.752C293.321 6.808 293.437 6.016 293.669 5.376C293.909 4.728 294.257 4.24 294.713 3.912C295.177 3.584 295.741 3.42 296.405 3.42C297.077 3.42 297.641 3.584 298.097 3.912C298.561 4.24 298.909 4.724 299.141 5.364C299.373 6.004 299.489 6.796 299.489 7.74C299.489 8.676 299.369 9.472 299.129 10.128C298.897 10.776 298.553 11.272 298.097 11.616C297.641 11.952 297.077 12.12 296.405 12.12ZM296.405 10.86C296.949 10.86 297.349 10.612 297.605 10.116C297.869 9.612 298.001 8.82 298.001 7.74C298.001 6.668 297.869 5.892 297.605 5.412C297.349 4.924 296.949 4.68 296.405 4.68C295.869 4.68 295.469 4.924 295.205 5.412C294.941 5.892 294.809 6.672 294.809 7.752C294.809 8.824 294.941 9.612 295.205 10.116C295.469 10.612 295.869 10.86 296.405 10.86Z" fill="black"/>
<circle cx="7" cy="32" r="6" fill="#D9D9D9" stroke="#CCCCCC" stroke-width="2"/>
<path d="M32.86 36.12C31.98 36.12 31.224 35.944 30.592 35.592C29.968 35.232 29.488 34.728 29.152 34.08C28.816 33.424 28.648 32.652 28.648 31.764C28.648 30.876 28.816 30.108 29.152 29.46C29.488 28.812 29.968 28.312 30.592 27.96C31.224 27.6 31.98 27.42 32.86 27.42C33.428 27.42 33.964 27.508 34.468 27.684C34.98 27.86 35.4 28.112 35.728 28.44L35.224 29.664C34.864 29.36 34.496 29.14 34.12 29.004C33.744 28.86 33.34 28.788 32.908 28.788C32.052 28.788 31.4 29.048 30.952 29.568C30.504 30.08 30.28 30.812 30.28 31.764C30.28 32.716 30.504 33.452 30.952 33.972C31.4 34.492 32.052 34.752 32.908 34.752C33.34 34.752 33.744 34.684 34.12 34.548C34.496 34.404 34.864 34.18 35.224 33.876L35.728 35.1C35.4 35.42 34.98 35.672 34.468 35.856C33.964 36.032 33.428 36.12 32.86 36.12ZM39.3787 36.12C38.7707 36.12 38.2427 35.996 37.7947 35.748C37.3467 35.5 36.9987 35.148 36.7507 34.692C36.5027 34.228 36.3787 33.684 36.3787 33.06C36.3787 32.436 36.5027 31.896 36.7507 31.44C36.9987 30.984 37.3467 30.632 37.7947 30.384C38.2427 30.136 38.7707 30.012 39.3787 30.012C39.9867 30.012 40.5147 30.136 40.9627 30.384C41.4107 30.632 41.7587 30.984 42.0067 31.44C42.2547 31.896 42.3787 32.436 42.3787 33.06C42.3787 33.684 42.2547 34.228 42.0067 34.692C41.7587 35.148 41.4107 35.5 40.9627 35.748C40.5147 35.996 39.9867 36.12 39.3787 36.12ZM39.3787 34.98C39.8267 34.98 40.1867 34.82 40.4587 34.5C40.7307 34.172 40.8667 33.692 40.8667 33.06C40.8667 32.42 40.7307 31.944 40.4587 31.632C40.1867 31.312 39.8267 31.152 39.3787 31.152C38.9307 31.152 38.5707 31.312 38.2987 31.632C38.0267 31.944 37.8907 32.42 37.8907 33.06C37.8907 33.692 38.0267 34.172 38.2987 34.5C38.5707 34.82 38.9307 34.98 39.3787 34.98ZM45.9407 36.12C45.4527 36.12 45.0487 36.032 44.7287 35.856C44.4087 35.672 44.1687 35.4 44.0087 35.04C43.8567 34.68 43.7807 34.232 43.7807 33.696V30.132H45.2807V33.72C45.2807 33.992 45.3167 34.22 45.3887 34.404C45.4687 34.588 45.5847 34.724 45.7367 34.812C45.8967 34.9 46.0967 34.944 46.3367 34.944C46.6087 34.944 46.8447 34.884 47.0447 34.764C47.2527 34.636 47.4127 34.46 47.5247 34.236C47.6447 34.004 47.7047 33.736 47.7047 33.432V30.132H49.2047V36H47.7407V34.776H47.9087C47.7407 35.208 47.4847 35.54 47.1407 35.772C46.8047 36.004 46.4047 36.12 45.9407 36.12ZM50.9659 36V30.132H52.4299V31.548H52.3099C52.4219 31.068 52.6419 30.704 52.9699 30.456C53.2979 30.2 53.7339 30.052 54.2779 30.012L54.7339 29.976L54.8299 31.248L53.9659 31.332C53.4779 31.38 53.1099 31.532 52.8619 31.788C52.6139 32.036 52.4899 32.388 52.4899 32.844V36H50.9659ZM57.9546 36.12C57.6266 36.12 57.3066 36.092 56.9946 36.036C56.6906 35.98 56.4106 35.904 56.1546 35.808C55.8986 35.704 55.6746 35.576 55.4826 35.424L55.8666 34.44C56.0666 34.568 56.2826 34.68 56.5146 34.776C56.7466 34.872 56.9866 34.944 57.2346 34.992C57.4826 35.04 57.7266 35.064 57.9666 35.064C58.3506 35.064 58.6346 35 58.8186 34.872C59.0106 34.736 59.1066 34.56 59.1066 34.344C59.1066 34.16 59.0426 34.02 58.9146 33.924C58.7946 33.82 58.6106 33.744 58.3626 33.696L57.1626 33.468C56.6666 33.372 56.2866 33.192 56.0226 32.928C55.7666 32.656 55.6386 32.308 55.6386 31.884C55.6386 31.5 55.7426 31.168 55.9506 30.888C56.1666 30.608 56.4626 30.392 56.8386 30.24C57.2146 30.088 57.6466 30.012 58.1346 30.012C58.4146 30.012 58.6866 30.04 58.9506 30.096C59.2146 30.144 59.4626 30.22 59.6946 30.324C59.9346 30.42 60.1426 30.548 60.3186 30.708L59.9106 31.692C59.7586 31.564 59.5826 31.456 59.3826 31.368C59.1826 31.272 58.9746 31.2 58.7586 31.152C58.5506 31.096 58.3466 31.068 58.1466 31.068C57.7546 31.068 57.4626 31.136 57.2706 31.272C57.0866 31.408 56.9946 31.588 56.9946 31.812C56.9946 31.98 57.0506 32.12 57.1626 32.232C57.2746 32.344 57.4466 32.42 57.6786 32.46L58.8786 32.688C59.3986 32.784 59.7906 32.96 60.0546 33.216C60.3266 33.472 60.4626 33.816 60.4626 34.248C60.4626 34.64 60.3586 34.976 60.1506 35.256C59.9426 35.536 59.6506 35.752 59.2746 35.904C58.8986 36.048 58.4586 36.12 57.9546 36.12ZM64.7579 36.12C64.0939 36.12 63.5219 35.996 63.0419 35.748C62.5619 35.5 62.1899 35.148 61.9259 34.692C61.6699 34.236 61.5419 33.696 61.5419 33.072C61.5419 32.464 61.6659 31.932 61.9139 31.476C62.1699 31.02 62.5179 30.664 62.9579 30.408C63.4059 30.144 63.9139 30.012 64.4819 30.012C65.0419 30.012 65.5219 30.132 65.9219 30.372C66.3219 30.612 66.6299 30.952 66.8459 31.392C67.0699 31.832 67.1819 32.356 67.1819 32.964V33.408H62.7539V32.544H66.1259L65.9339 32.724C65.9339 32.18 65.8139 31.764 65.5739 31.476C65.3339 31.18 64.9899 31.032 64.5419 31.032C64.2059 31.032 63.9179 31.112 63.6779 31.272C63.4459 31.424 63.2659 31.644 63.1379 31.932C63.0179 32.212 62.9579 32.548 62.9579 32.94V33.024C62.9579 33.464 63.0259 33.828 63.1619 34.116C63.2979 34.404 63.5019 34.62 63.7739 34.764C64.0459 34.908 64.3819 34.98 64.7819 34.98C65.1099 34.98 65.4379 34.932 65.7659 34.836C66.0939 34.732 66.3939 34.572 66.6659 34.356L67.0859 35.364C66.8059 35.596 66.4539 35.78 66.0299 35.916C65.6059 36.052 65.1819 36.12 64.7579 36.12ZM70.0961 36L67.7801 30.132H69.3161L70.9481 34.632H70.6721L72.3281 30.132H73.3841L75.0161 34.632H74.7641L76.3961 30.132H77.8481L75.5441 36H74.2361L72.4601 31.308H73.1441L71.4041 36H70.0961ZM81.4654 36.12C80.8574 36.12 80.3294 35.996 79.8814 35.748C79.4334 35.5 79.0854 35.148 78.8374 34.692C78.5894 34.228 78.4654 33.684 78.4654 33.06C78.4654 32.436 78.5894 31.896 78.8374 31.44C79.0854 30.984 79.4334 30.632 79.8814 30.384C80.3294 30.136 80.8574 30.012 81.4654 30.012C82.0734 30.012 82.6014 30.136 83.0494 30.384C83.4974 30.632 83.8454 30.984 84.0934 31.44C84.3414 31.896 84.4654 32.436 84.4654 33.06C84.4654 33.684 84.3414 34.228 84.0934 34.692C83.8454 35.148 83.4974 35.5 83.0494 35.748C82.6014 35.996 82.0734 36.12 81.4654 36.12ZM81.4654 34.98C81.9134 34.98 82.2734 34.82 82.5454 34.5C82.8174 34.172 82.9534 33.692 82.9534 33.06C82.9534 32.42 82.8174 31.944 82.5454 31.632C82.2734 31.312 81.9134 31.152 81.4654 31.152C81.0174 31.152 80.6574 31.312 80.3854 31.632C80.1134 31.944 79.9774 32.42 79.9774 33.06C79.9774 33.692 80.1134 34.172 80.3854 34.5C80.6574 34.82 81.0174 34.98 81.4654 34.98ZM85.9034 36V30.132H87.3674V31.548H87.2474C87.3594 31.068 87.5794 30.704 87.9074 30.456C88.2354 30.2 88.6714 30.052 89.2154 30.012L89.6714 29.976L89.7674 31.248L88.9034 31.332C88.4154 31.38 88.0474 31.532 87.7994 31.788C87.5514 32.036 87.4274 32.388 87.4274 32.844V36H85.9034ZM90.8027 36V27.54H92.3027V32.628H92.3267L94.6907 30.132H96.5027L93.5507 33.252V32.628L96.6707 36H94.8347L92.3267 33.384H92.3027V36H90.8027ZM101.015 36V27.54H106.643V28.764H102.491V31.092H106.379V32.316H102.491V34.776H106.643V36H101.015ZM110.32 36.12C109.992 36.12 109.672 36.092 109.36 36.036C109.056 35.98 108.776 35.904 108.52 35.808C108.264 35.704 108.04 35.576 107.848 35.424L108.232 34.44C108.432 34.568 108.648 34.68 108.88 34.776C109.112 34.872 109.352 34.944 109.6 34.992C109.848 35.04 110.092 35.064 110.332 35.064C110.716 35.064 111 35 111.184 34.872C111.376 34.736 111.472 34.56 111.472 34.344C111.472 34.16 111.408 34.02 111.28 33.924C111.16 33.82 110.976 33.744 110.728 33.696L109.528 33.468C109.032 33.372 108.652 33.192 108.388 32.928C108.132 32.656 108.004 32.308 108.004 31.884C108.004 31.5 108.108 31.168 108.316 30.888C108.532 30.608 108.828 30.392 109.204 30.24C109.58 30.088 110.012 30.012 110.5 30.012C110.78 30.012 111.052 30.04 111.316 30.096C111.58 30.144 111.828 30.22 112.06 30.324C112.3 30.42 112.508 30.548 112.684 30.708L112.276 31.692C112.124 31.564 111.948 31.456 111.748 31.368C111.548 31.272 111.34 31.2 111.124 31.152C110.916 31.096 110.712 31.068 110.512 31.068C110.12 31.068 109.828 31.136 109.636 31.272C109.452 31.408 109.36 31.588 109.36 31.812C109.36 31.98 109.416 32.12 109.528 32.232C109.64 32.344 109.812 32.42 110.044 32.46L111.244 32.688C111.764 32.784 112.156 32.96 112.42 33.216C112.692 33.472 112.828 33.816 112.828 34.248C112.828 34.64 112.724 34.976 112.516 35.256C112.308 35.536 112.016 35.752 111.64 35.904C111.264 36.048 110.824 36.12 110.32 36.12ZM116.38 36.12C116.052 36.12 115.732 36.092 115.42 36.036C115.116 35.98 114.836 35.904 114.58 35.808C114.324 35.704 114.1 35.576 113.908 35.424L114.292 34.44C114.492 34.568 114.708 34.68 114.94 34.776C115.172 34.872 115.412 34.944 115.66 34.992C115.908 35.04 116.152 35.064 116.392 35.064C116.776 35.064 117.06 35 117.244 34.872C117.436 34.736 117.532 34.56 117.532 34.344C117.532 34.16 117.468 34.02 117.34 33.924C117.22 33.82 117.036 33.744 116.788 33.696L115.588 33.468C115.092 33.372 114.712 33.192 114.448 32.928C114.192 32.656 114.064 32.308 114.064 31.884C114.064 31.5 114.168 31.168 114.376 30.888C114.592 30.608 114.888 30.392 115.264 30.24C115.64 30.088 116.072 30.012 116.56 30.012C116.84 30.012 117.112 30.04 117.376 30.096C117.64 30.144 117.888 30.22 118.12 30.324C118.36 30.42 118.568 30.548 118.744 30.708L118.336 31.692C118.184 31.564 118.008 31.456 117.808 31.368C117.608 31.272 117.4 31.2 117.184 31.152C116.976 31.096 116.772 31.068 116.572 31.068C116.18 31.068 115.888 31.136 115.696 31.272C115.512 31.408 115.42 31.588 115.42 31.812C115.42 31.98 115.476 32.12 115.588 32.232C115.7 32.344 115.872 32.42 116.104 32.46L117.304 32.688C117.824 32.784 118.216 32.96 118.48 33.216C118.752 33.472 118.888 33.816 118.888 34.248C118.888 34.64 118.784 34.976 118.576 35.256C118.368 35.536 118.076 35.752 117.7 35.904C117.324 36.048 116.884 36.12 116.38 36.12ZM123.183 36.12C122.519 36.12 121.947 35.996 121.467 35.748C120.987 35.5 120.615 35.148 120.351 34.692C120.095 34.236 119.967 33.696 119.967 33.072C119.967 32.464 120.091 31.932 120.339 31.476C120.595 31.02 120.943 30.664 121.383 30.408C121.831 30.144 122.339 30.012 122.907 30.012C123.467 30.012 123.947 30.132 124.347 30.372C124.747 30.612 125.055 30.952 125.271 31.392C125.495 31.832 125.607 32.356 125.607 32.964V33.408H121.179V32.544H124.551L124.359 32.724C124.359 32.18 124.239 31.764 123.999 31.476C123.759 31.18 123.415 31.032 122.967 31.032C122.631 31.032 122.343 31.112 122.103 31.272C121.871 31.424 121.691 31.644 121.563 31.932C121.443 32.212 121.383 32.548 121.383 32.94V33.024C121.383 33.464 121.451 33.828 121.587 34.116C121.723 34.404 121.927 34.62 122.199 34.764C122.471 34.908 122.807 34.98 123.207 34.98C123.535 34.98 123.863 34.932 124.191 34.836C124.519 34.732 124.819 34.572 125.091 34.356L125.511 35.364C125.231 35.596 124.879 35.78 124.455 35.916C124.031 36.052 123.607 36.12 123.183 36.12ZM126.995 36V30.132H128.459V31.308H128.327C128.503 30.884 128.775 30.564 129.143 30.348C129.519 30.124 129.943 30.012 130.415 30.012C130.887 30.012 131.275 30.1 131.579 30.276C131.883 30.452 132.111 30.72 132.263 31.08C132.415 31.432 132.491 31.88 132.491 32.424V36H130.991V32.496C130.991 32.192 130.951 31.944 130.871 31.752C130.799 31.56 130.683 31.42 130.523 31.332C130.371 31.236 130.175 31.188 129.935 31.188C129.647 31.188 129.395 31.252 129.179 31.38C128.963 31.5 128.795 31.676 128.675 31.908C128.555 32.132 128.495 32.396 128.495 32.7V36H126.995ZM136.902 36.12C136.118 36.12 135.534 35.924 135.15 35.532C134.766 35.14 134.574 34.568 134.574 33.816V31.26H133.446V30.132H134.574V28.38H136.074V30.132H137.85V31.26H136.074V33.732C136.074 34.116 136.158 34.404 136.326 34.596C136.494 34.788 136.766 34.884 137.142 34.884C137.254 34.884 137.37 34.872 137.49 34.848C137.61 34.816 137.734 34.784 137.862 34.752L138.09 35.856C137.946 35.936 137.762 36 137.538 36.048C137.322 36.096 137.11 36.12 136.902 36.12ZM138.924 28.872V27.408H140.604V28.872H138.924ZM139.02 36V30.132H140.52V36H139.02ZM144.21 36.12C143.786 36.12 143.406 36.04 143.07 35.88C142.742 35.712 142.482 35.488 142.29 35.208C142.106 34.928 142.014 34.612 142.014 34.26C142.014 33.828 142.126 33.488 142.35 33.24C142.574 32.984 142.938 32.8 143.442 32.688C143.946 32.576 144.622 32.52 145.47 32.52H146.07V33.384H145.482C145.106 33.384 144.79 33.4 144.534 33.432C144.278 33.456 144.07 33.5 143.91 33.564C143.758 33.62 143.646 33.7 143.574 33.804C143.51 33.908 143.478 34.036 143.478 34.188C143.478 34.452 143.57 34.668 143.754 34.836C143.938 35.004 144.194 35.088 144.522 35.088C144.786 35.088 145.018 35.028 145.218 34.908C145.426 34.78 145.59 34.608 145.71 34.392C145.83 34.176 145.89 33.928 145.89 33.648V32.268C145.89 31.868 145.802 31.58 145.626 31.404C145.45 31.228 145.154 31.14 144.738 31.14C144.41 31.14 144.074 31.192 143.73 31.296C143.386 31.392 143.038 31.544 142.686 31.752L142.254 30.732C142.462 30.588 142.706 30.464 142.986 30.36C143.274 30.248 143.574 30.164 143.886 30.108C144.206 30.044 144.506 30.012 144.786 30.012C145.362 30.012 145.834 30.1 146.202 30.276C146.578 30.452 146.858 30.72 147.042 31.08C147.226 31.432 147.318 31.888 147.318 32.448V36H145.914V34.752H146.01C145.954 35.032 145.842 35.276 145.674 35.484C145.514 35.684 145.31 35.84 145.062 35.952C144.814 36.064 144.53 36.12 144.21 36.12ZM151.081 36.12C150.385 36.12 149.869 35.932 149.533 35.556C149.205 35.172 149.041 34.612 149.041 33.876V27.54H150.541V33.804C150.541 34.036 150.573 34.236 150.637 34.404C150.709 34.564 150.813 34.684 150.949 34.764C151.085 34.844 151.253 34.884 151.453 34.884C151.541 34.884 151.629 34.88 151.717 34.872C151.805 34.864 151.889 34.848 151.969 34.824L151.945 36.012C151.801 36.044 151.657 36.068 151.513 36.084C151.377 36.108 151.233 36.12 151.081 36.12Z" fill="black"/>
<path d="M223.747 36V27.54H227.419C228.347 27.54 229.063 27.764 229.567 28.212C230.071 28.652 230.323 29.272 230.323 30.072C230.323 30.592 230.207 31.04 229.975 31.416C229.751 31.792 229.423 32.08 228.991 32.28C228.559 32.48 228.035 32.58 227.419 32.58L227.527 32.4H227.923C228.251 32.4 228.535 32.48 228.775 32.64C229.023 32.8 229.239 33.052 229.423 33.396L230.839 36H229.147L227.683 33.3C227.587 33.124 227.479 32.988 227.359 32.892C227.239 32.788 227.103 32.716 226.951 32.676C226.799 32.636 226.623 32.616 226.423 32.616H225.283V36H223.747ZM225.283 31.476H227.155C227.707 31.476 228.123 31.364 228.403 31.14C228.691 30.908 228.835 30.564 228.835 30.108C228.835 29.66 228.691 29.324 228.403 29.1C228.123 28.868 227.707 28.752 227.155 28.752H225.283V31.476ZM232.03 38.16V30.132H233.494V31.368H233.374C233.494 30.96 233.738 30.632 234.106 30.384C234.482 30.136 234.918 30.012 235.414 30.012C235.926 30.012 236.374 30.136 236.758 30.384C237.15 30.632 237.454 30.984 237.67 31.44C237.886 31.888 237.994 32.428 237.994 33.06C237.994 33.684 237.886 34.228 237.67 34.692C237.454 35.148 237.154 35.5 236.77 35.748C236.386 35.996 235.934 36.12 235.414 36.12C234.926 36.12 234.498 36 234.13 35.76C233.762 35.512 233.514 35.192 233.386 34.8H233.53V38.16H232.03ZM234.994 34.98C235.442 34.98 235.802 34.82 236.074 34.5C236.346 34.172 236.482 33.692 236.482 33.06C236.482 32.42 236.346 31.944 236.074 31.632C235.802 31.312 235.442 31.152 234.994 31.152C234.546 31.152 234.186 31.312 233.914 31.632C233.642 31.944 233.506 32.42 233.506 33.06C233.506 33.692 233.642 34.172 233.914 34.5C234.186 34.82 234.546 34.98 234.994 34.98ZM243.388 36V34.728H245.296V28.836H246.04L243.82 30.18L243.22 29.052L245.74 27.54H246.832V34.728H248.62V36H243.388ZM250.855 37.596L250.243 37.116C250.419 36.94 250.555 36.772 250.651 36.612C250.747 36.46 250.815 36.304 250.855 36.144C250.903 35.984 250.927 35.82 250.927 35.652L251.251 36H250.123V34.332H251.803V35.436C251.803 35.708 251.771 35.964 251.707 36.204C251.651 36.444 251.555 36.676 251.419 36.9C251.283 37.132 251.095 37.364 250.855 37.596ZM256.252 36.12C255.588 36.12 255.024 35.952 254.56 35.616C254.104 35.272 253.756 34.776 253.516 34.128C253.284 33.48 253.168 32.688 253.168 31.752C253.168 30.808 253.284 30.016 253.516 29.376C253.756 28.728 254.104 28.24 254.56 27.912C255.024 27.584 255.588 27.42 256.252 27.42C256.924 27.42 257.488 27.584 257.944 27.912C258.408 28.24 258.756 28.724 258.988 29.364C259.22 30.004 259.336 30.796 259.336 31.74C259.336 32.676 259.216 33.472 258.976 34.128C258.744 34.776 258.4 35.272 257.944 35.616C257.488 35.952 256.924 36.12 256.252 36.12ZM256.252 34.86C256.796 34.86 257.196 34.612 257.452 34.116C257.716 33.612 257.848 32.82 257.848 31.74C257.848 30.668 257.716 29.892 257.452 29.412C257.196 28.924 256.796 28.68 256.252 28.68C255.716 28.68 255.316 28.924 255.052 29.412C254.788 29.892 254.656 30.672 254.656 31.752C254.656 32.824 254.788 33.612 255.052 34.116C255.316 34.612 255.716 34.86 256.252 34.86ZM263.647 36.12C262.983 36.12 262.419 35.952 261.955 35.616C261.499 35.272 261.151 34.776 260.911 34.128C260.679 33.48 260.563 32.688 260.563 31.752C260.563 30.808 260.679 30.016 260.911 29.376C261.151 28.728 261.499 28.24 261.955 27.912C262.419 27.584 262.983 27.42 263.647 27.42C264.319 27.42 264.883 27.584 265.339 27.912C265.803 28.24 266.151 28.724 266.383 29.364C266.615 30.004 266.731 30.796 266.731 31.74C266.731 32.676 266.611 33.472 266.371 34.128C266.139 34.776 265.795 35.272 265.339 35.616C264.883 35.952 264.319 36.12 263.647 36.12ZM263.647 34.86C264.191 34.86 264.591 34.612 264.847 34.116C265.111 33.612 265.243 32.82 265.243 31.74C265.243 30.668 265.111 29.892 264.847 29.412C264.591 28.924 264.191 28.68 263.647 28.68C263.111 28.68 262.711 28.924 262.447 29.412C262.183 29.892 262.051 30.672 262.051 31.752C262.051 32.824 262.183 33.612 262.447 34.116C262.711 34.612 263.111 34.86 263.647 34.86ZM271.042 36.12C270.378 36.12 269.814 35.952 269.35 35.616C268.894 35.272 268.546 34.776 268.306 34.128C268.074 33.48 267.958 32.688 267.958 31.752C267.958 30.808 268.074 30.016 268.306 29.376C268.546 28.728 268.894 28.24 269.35 27.912C269.814 27.584 270.378 27.42 271.042 27.42C271.714 27.42 272.278 27.584 272.734 27.912C273.198 28.24 273.546 28.724 273.778 29.364C274.01 30.004 274.126 30.796 274.126 31.74C274.126 32.676 274.006 33.472 273.766 34.128C273.534 34.776 273.19 35.272 272.734 35.616C272.278 35.952 271.714 36.12 271.042 36.12ZM271.042 34.86C271.586 34.86 271.986 34.612 272.242 34.116C272.506 33.612 272.638 32.82 272.638 31.74C272.638 30.668 272.506 29.892 272.242 29.412C271.986 28.924 271.586 28.68 271.042 28.68C270.506 28.68 270.106 28.924 269.842 29.412C269.578 29.892 269.446 30.672 269.446 31.752C269.446 32.824 269.578 33.612 269.842 34.116C270.106 34.612 270.506 34.86 271.042 34.86ZM276.217 37.596L275.605 37.116C275.781 36.94 275.917 36.772 276.013 36.612C276.109 36.46 276.177 36.304 276.217 36.144C276.265 35.984 276.289 35.82 276.289 35.652L276.613 36H275.485V34.332H277.165V35.436C277.165 35.708 277.133 35.964 277.069 36.204C277.013 36.444 276.917 36.676 276.781 36.9C276.645 37.132 276.457 37.364 276.217 37.596ZM281.614 36.12C280.95 36.12 280.386 35.952 279.922 35.616C279.466 35.272 279.118 34.776 278.878 34.128C278.646 33.48 278.53 32.688 278.53 31.752C278.53 30.808 278.646 30.016 278.878 29.376C279.118 28.728 279.466 28.24 279.922 27.912C280.386 27.584 280.95 27.42 281.614 27.42C282.286 27.42 282.85 27.584 283.306 27.912C283.77 28.24 284.118 28.724 284.35 29.364C284.582 30.004 284.698 30.796 284.698 31.74C284.698 32.676 284.578 33.472 284.338 34.128C284.106 34.776 283.762 35.272 283.306 35.616C282.85 35.952 282.286 36.12 281.614 36.12ZM281.614 34.86C282.158 34.86 282.558 34.612 282.814 34.116C283.078 33.612 283.21 32.82 283.21 31.74C283.21 30.668 283.078 29.892 282.814 29.412C282.558 28.924 282.158 28.68 281.614 28.68C281.078 28.68 280.678 28.924 280.414 29.412C280.15 29.892 280.018 30.672 280.018 31.752C280.018 32.824 280.15 33.612 280.414 34.116C280.678 34.612 281.078 34.86 281.614 34.86ZM289.009 36.12C288.345 36.12 287.781 35.952 287.317 35.616C286.861 35.272 286.513 34.776 286.273 34.128C286.041 33.48 285.925 32.688 285.925 31.752C285.925 30.808 286.041 30.016 286.273 29.376C286.513 28.728 286.861 28.24 287.317 27.912C287.781 27.584 288.345 27.42 289.009 27.42C289.681 27.42 290.245 27.584 290.701 27.912C291.165 28.24 291.513 28.724 291.745 29.364C291.977 30.004 292.093 30.796 292.093 31.74C292.093 32.676 291.973 33.472 291.733 34.128C291.501 34.776 291.157 35.272 290.701 35.616C290.245 35.952 289.681 36.12 289.009 36.12ZM289.009 34.86C289.553 34.86 289.953 34.612 290.209 34.116C290.473 33.612 290.605 32.82 290.605 31.74C290.605 30.668 290.473 29.892 290.209 29.412C289.953 28.924 289.553 28.68 289.009 28.68C288.473 28.68 288.073 28.924 287.809 29.412C287.545 29.892 287.413 30.672 287.413 31.752C287.413 32.824 287.545 33.612 287.809 34.116C288.073 34.612 288.473 34.86 289.009 34.86ZM296.405 36.12C295.741 36.12 295.177 35.952 294.713 35.616C294.257 35.272 293.909 34.776 293.669 34.128C293.437 33.48 293.321 32.688 293.321 31.752C293.321 30.808 293.437 30.016 293.669 29.376C293.909 28.728 294.257 28.24 294.713 27.912C295.177 27.584 295.741 27.42 296.405 27.42C297.077 27.42 297.641 27.584 298.097 27.912C298.561 28.24 298.909 28.724 299.141 29.364C299.373 30.004 299.489 30.796 299.489 31.74C299.489 32.676 299.369 33.472 299.129 34.128C298.897 34.776 298.553 35.272 298.097 35.616C297.641 35.952 297.077 36.12 296.405 36.12ZM296.405 34.86C296.949 34.86 297.349 34.612 297.605 34.116C297.869 33.612 298.001 32.82 298.001 31.74C298.001 30.668 297.869 29.892 297.605 29.412C297.349 28.924 296.949 28.68 296.405 28.68C295.869 28.68 295.469 28.924 295.205 29.412C294.941 29.892 294.809 30.672 294.809 31.752C294.809 32.824 294.941 33.612 295.205 34.116C295.469 34.612 295.869 34.86 296.405 34.86Z" fill="black"/>
<circle cx="7" cy="56" r="6" fill="#D9D9D9" stroke="#CCCCCC" stroke-width="2"/>
<path d="M28.924 60V51.54H32.62C33.508 51.54 34.196 51.736 34.684 52.128C35.172 52.512 35.416 53.048 35.416 53.736C35.416 54.248 35.268 54.68 34.972 55.032C34.676 55.384 34.272 55.62 33.76 55.74V55.56C34.152 55.616 34.488 55.736 34.768 55.92C35.048 56.104 35.26 56.34 35.404 56.628C35.556 56.916 35.632 57.252 35.632 57.636C35.632 58.132 35.516 58.56 35.284 58.92C35.06 59.272 34.732 59.54 34.3 59.724C33.868 59.908 33.352 60 32.752 60H28.924ZM30.4 58.836H32.56C32.776 58.836 32.968 58.82 33.136 58.788C33.312 58.756 33.46 58.708 33.58 58.644C33.708 58.572 33.812 58.484 33.892 58.38C33.98 58.276 34.044 58.156 34.084 58.02C34.124 57.884 34.144 57.732 34.144 57.564C34.144 57.388 34.124 57.232 34.084 57.096C34.044 56.96 33.98 56.844 33.892 56.748C33.812 56.644 33.708 56.56 33.58 56.496C33.46 56.424 33.312 56.372 33.136 56.34C32.968 56.308 32.776 56.292 32.56 56.292H30.4V58.836ZM30.4 55.128H32.356C32.884 55.128 33.276 55.028 33.532 54.828C33.796 54.62 33.928 54.316 33.928 53.916C33.928 53.516 33.796 53.216 33.532 53.016C33.276 52.808 32.884 52.704 32.356 52.704H30.4V55.128ZM39.3657 60.12C38.8777 60.12 38.4737 60.032 38.1537 59.856C37.8337 59.672 37.5937 59.4 37.4337 59.04C37.2817 58.68 37.2057 58.232 37.2057 57.696V54.132H38.7057V57.72C38.7057 57.992 38.7417 58.22 38.8137 58.404C38.8937 58.588 39.0097 58.724 39.1617 58.812C39.3217 58.9 39.5217 58.944 39.7617 58.944C40.0337 58.944 40.2697 58.884 40.4697 58.764C40.6777 58.636 40.8377 58.46 40.9497 58.236C41.0697 58.004 41.1297 57.736 41.1297 57.432V54.132H42.6297V60H41.1657V58.776H41.3337C41.1657 59.208 40.9097 59.54 40.5657 59.772C40.2297 60.004 39.8297 60.12 39.3657 60.12ZM44.9189 62.16L46.1429 59.46V60.084L43.5629 54.132H45.1589L46.9829 58.68H46.6229L48.4829 54.132H49.9949L46.4669 62.16H44.9189ZM57.4017 60.12C56.9617 60.12 56.5377 60.08 56.1297 60C55.7297 59.928 55.3577 59.82 55.0137 59.676C54.6777 59.532 54.3777 59.36 54.1137 59.16L54.5817 57.948C54.8457 58.132 55.1217 58.292 55.4097 58.428C55.7057 58.556 56.0177 58.656 56.3457 58.728C56.6817 58.792 57.0337 58.824 57.4017 58.824C58.0337 58.824 58.4937 58.72 58.7817 58.512C59.0697 58.296 59.2137 58.02 59.2137 57.684C59.2137 57.5 59.1697 57.344 59.0817 57.216C58.9937 57.08 58.8497 56.964 58.6497 56.868C58.4497 56.772 58.1857 56.692 57.8577 56.628L56.5377 56.352C55.7777 56.192 55.2097 55.924 54.8337 55.548C54.4657 55.164 54.2817 54.66 54.2817 54.036C54.2817 53.508 54.4217 53.048 54.7017 52.656C54.9817 52.264 55.3697 51.96 55.8657 51.744C56.3617 51.528 56.9337 51.42 57.5817 51.42C57.9657 51.42 58.3337 51.46 58.6857 51.54C59.0457 51.612 59.3737 51.724 59.6697 51.876C59.9737 52.02 60.2377 52.196 60.4617 52.404L59.9937 53.556C59.6577 53.276 59.2897 53.068 58.8897 52.932C58.4897 52.788 58.0497 52.716 57.5697 52.716C57.2017 52.716 56.8857 52.768 56.6217 52.872C56.3577 52.976 56.1537 53.124 56.0097 53.316C55.8737 53.5 55.8057 53.72 55.8057 53.976C55.8057 54.264 55.9017 54.496 56.0937 54.672C56.2857 54.84 56.6137 54.972 57.0777 55.068L58.3857 55.344C59.1777 55.512 59.7657 55.776 60.1497 56.136C60.5417 56.496 60.7377 56.976 60.7377 57.576C60.7377 58.08 60.6017 58.524 60.3297 58.908C60.0577 59.292 59.6697 59.592 59.1657 59.808C58.6697 60.016 58.0817 60.12 57.4017 60.12ZM64.7414 60.12C63.9574 60.12 63.3734 59.924 62.9894 59.532C62.6054 59.14 62.4134 58.568 62.4134 57.816V55.26H61.2854V54.132H62.4134V52.38H63.9134V54.132H65.6894V55.26H63.9134V57.732C63.9134 58.116 63.9974 58.404 64.1654 58.596C64.3334 58.788 64.6054 58.884 64.9814 58.884C65.0934 58.884 65.2094 58.872 65.3294 58.848C65.4494 58.816 65.5734 58.784 65.7014 58.752L65.9294 59.856C65.7854 59.936 65.6014 60 65.3774 60.048C65.1614 60.096 64.9494 60.12 64.7414 60.12ZM67.4807 62.16L68.7047 59.46V60.084L66.1247 54.132H67.7207L69.5447 58.68H69.1847L71.0447 54.132H72.5567L69.0287 62.16H67.4807ZM75.5091 60.12C74.8131 60.12 74.2971 59.932 73.9611 59.556C73.6331 59.172 73.4691 58.612 73.4691 57.876V51.54H74.9691V57.804C74.9691 58.036 75.0011 58.236 75.0651 58.404C75.1371 58.564 75.2411 58.684 75.3771 58.764C75.5131 58.844 75.6811 58.884 75.8811 58.884C75.9691 58.884 76.0571 58.88 76.1451 58.872C76.2331 58.864 76.3171 58.848 76.3971 58.824L76.3731 60.012C76.2291 60.044 76.0851 60.068 75.9411 60.084C75.8051 60.108 75.6611 60.12 75.5091 60.12ZM79.6251 60.12C79.1371 60.12 78.7331 60.032 78.4131 59.856C78.0931 59.672 77.8531 59.4 77.6931 59.04C77.5411 58.68 77.4651 58.232 77.4651 57.696V54.132H78.9651V57.72C78.9651 57.992 79.0011 58.22 79.0731 58.404C79.1531 58.588 79.2691 58.724 79.4211 58.812C79.5811 58.9 79.7811 58.944 80.0211 58.944C80.2931 58.944 80.5291 58.884 80.7291 58.764C80.9371 58.636 81.0971 58.46 81.2091 58.236C81.3291 58.004 81.3891 57.736 81.3891 57.432V54.132H82.8891V60H81.4251V58.776H81.5931C81.4251 59.208 81.1691 59.54 80.8251 59.772C80.4891 60.004 80.0891 60.12 79.6251 60.12ZM86.7983 60.12C86.4703 60.12 86.1503 60.092 85.8383 60.036C85.5343 59.98 85.2543 59.904 84.9983 59.808C84.7423 59.704 84.5183 59.576 84.3263 59.424L84.7103 58.44C84.9103 58.568 85.1263 58.68 85.3583 58.776C85.5903 58.872 85.8303 58.944 86.0783 58.992C86.3263 59.04 86.5703 59.064 86.8103 59.064C87.1943 59.064 87.4783 59 87.6623 58.872C87.8543 58.736 87.9503 58.56 87.9503 58.344C87.9503 58.16 87.8863 58.02 87.7583 57.924C87.6383 57.82 87.4543 57.744 87.2063 57.696L86.0063 57.468C85.5103 57.372 85.1303 57.192 84.8663 56.928C84.6103 56.656 84.4823 56.308 84.4823 55.884C84.4823 55.5 84.5863 55.168 84.7943 54.888C85.0103 54.608 85.3063 54.392 85.6823 54.24C86.0583 54.088 86.4903 54.012 86.9783 54.012C87.2583 54.012 87.5303 54.04 87.7943 54.096C88.0583 54.144 88.3063 54.22 88.5383 54.324C88.7783 54.42 88.9863 54.548 89.1623 54.708L88.7543 55.692C88.6023 55.564 88.4263 55.456 88.2263 55.368C88.0263 55.272 87.8183 55.2 87.6023 55.152C87.3943 55.096 87.1903 55.068 86.9903 55.068C86.5983 55.068 86.3063 55.136 86.1143 55.272C85.9303 55.408 85.8383 55.588 85.8383 55.812C85.8383 55.98 85.8943 56.12 86.0063 56.232C86.1183 56.344 86.2903 56.42 86.5223 56.46L87.7223 56.688C88.2423 56.784 88.6343 56.96 88.8983 57.216C89.1703 57.472 89.3063 57.816 89.3063 58.248C89.3063 58.64 89.2023 58.976 88.9943 59.256C88.7863 59.536 88.4943 59.752 88.1183 59.904C87.7423 60.048 87.3023 60.12 86.7983 60.12ZM94.2881 60V51.54H97.9601C98.5841 51.54 99.1121 51.644 99.5441 51.852C99.9761 52.06 100.304 52.36 100.528 52.752C100.752 53.144 100.864 53.62 100.864 54.18C100.864 54.732 100.752 55.208 100.528 55.608C100.304 56 99.9761 56.304 99.5441 56.52C99.1121 56.728 98.5841 56.832 97.9601 56.832H95.8241V60H94.2881ZM95.8241 55.62H97.7201C98.2641 55.62 98.6761 55.5 98.9561 55.26C99.2361 55.012 99.3761 54.652 99.3761 54.18C99.3761 53.708 99.2361 53.352 98.9561 53.112C98.6761 52.872 98.2641 52.752 97.7201 52.752H95.8241V55.62ZM104.771 60.12C104.107 60.12 103.535 59.996 103.055 59.748C102.575 59.5 102.203 59.148 101.939 58.692C101.683 58.236 101.555 57.696 101.555 57.072C101.555 56.464 101.679 55.932 101.927 55.476C102.183 55.02 102.531 54.664 102.971 54.408C103.419 54.144 103.927 54.012 104.495 54.012C105.055 54.012 105.535 54.132 105.935 54.372C106.335 54.612 106.643 54.952 106.859 55.392C107.083 55.832 107.195 56.356 107.195 56.964V57.408H102.767V56.544H106.139L105.947 56.724C105.947 56.18 105.827 55.764 105.587 55.476C105.347 55.18 105.003 55.032 104.555 55.032C104.219 55.032 103.931 55.112 103.691 55.272C103.459 55.424 103.279 55.644 103.151 55.932C103.031 56.212 102.971 56.548 102.971 56.94V57.024C102.971 57.464 103.039 57.828 103.175 58.116C103.311 58.404 103.515 58.62 103.787 58.764C104.059 58.908 104.395 58.98 104.795 58.98C105.123 58.98 105.451 58.932 105.779 58.836C106.107 58.732 106.407 58.572 106.679 58.356L107.099 59.364C106.819 59.596 106.467 59.78 106.043 59.916C105.619 60.052 105.195 60.12 104.771 60.12ZM108.583 60V54.132H110.047V55.308H109.915C110.091 54.884 110.363 54.564 110.731 54.348C111.107 54.124 111.531 54.012 112.003 54.012C112.475 54.012 112.863 54.1 113.167 54.276C113.471 54.452 113.699 54.72 113.851 55.08C114.003 55.432 114.079 55.88 114.079 56.424V60H112.579V56.496C112.579 56.192 112.539 55.944 112.459 55.752C112.387 55.56 112.271 55.42 112.111 55.332C111.959 55.236 111.763 55.188 111.523 55.188C111.235 55.188 110.983 55.252 110.767 55.38C110.551 55.5 110.383 55.676 110.263 55.908C110.143 56.132 110.083 56.396 110.083 56.7V60H108.583Z" fill="black"/>
<path d="M223.747 60V51.54H227.419C228.347 51.54 229.063 51.764 229.567 52.212C230.071 52.652 230.323 53.272 230.323 54.072C230.323 54.592 230.207 55.04 229.975 55.416C229.751 55.792 229.423 56.08 228.991 56.28C228.559 56.48 228.035 56.58 227.419 56.58L227.527 56.4H227.923C228.251 56.4 228.535 56.48 228.775 56.64C229.023 56.8 229.239 57.052 229.423 57.396L230.839 60H229.147L227.683 57.3C227.587 57.124 227.479 56.988 227.359 56.892C227.239 56.788 227.103 56.716 226.951 56.676C226.799 56.636 226.623 56.616 226.423 56.616H225.283V60H223.747ZM225.283 55.476H227.155C227.707 55.476 228.123 55.364 228.403 55.14C228.691 54.908 228.835 54.564 228.835 54.108C228.835 53.66 228.691 53.324 228.403 53.1C228.123 52.868 227.707 52.752 227.155 52.752H225.283V55.476ZM232.03 62.16V54.132H233.494V55.368H233.374C233.494 54.96 233.738 54.632 234.106 54.384C234.482 54.136 234.918 54.012 235.414 54.012C235.926 54.012 236.374 54.136 236.758 54.384C237.15 54.632 237.454 54.984 237.67 55.44C237.886 55.888 237.994 56.428 237.994 57.06C237.994 57.684 237.886 58.228 237.67 58.692C237.454 59.148 237.154 59.5 236.77 59.748C236.386 59.996 235.934 60.12 235.414 60.12C234.926 60.12 234.498 60 234.13 59.76C233.762 59.512 233.514 59.192 233.386 58.8H233.53V62.16H232.03ZM234.994 58.98C235.442 58.98 235.802 58.82 236.074 58.5C236.346 58.172 236.482 57.692 236.482 57.06C236.482 56.42 236.346 55.944 236.074 55.632C235.802 55.312 235.442 55.152 234.994 55.152C234.546 55.152 234.186 55.312 233.914 55.632C233.642 55.944 233.506 56.42 233.506 57.06C233.506 57.692 233.642 58.172 233.914 58.5C234.186 58.82 234.546 58.98 234.994 58.98ZM243.388 60V58.728H245.296V52.836H246.04L243.82 54.18L243.22 53.052L245.74 51.54H246.832V58.728H248.62V60H243.388ZM250.855 61.596L250.243 61.116C250.419 60.94 250.555 60.772 250.651 60.612C250.747 60.46 250.815 60.304 250.855 60.144C250.903 59.984 250.927 59.82 250.927 59.652L251.251 60H250.123V58.332H251.803V59.436C251.803 59.708 251.771 59.964 251.707 60.204C251.651 60.444 251.555 60.676 251.419 60.9C251.283 61.132 251.095 61.364 250.855 61.596ZM256.252 60.12C255.588 60.12 255.024 59.952 254.56 59.616C254.104 59.272 253.756 58.776 253.516 58.128C253.284 57.48 253.168 56.688 253.168 55.752C253.168 54.808 253.284 54.016 253.516 53.376C253.756 52.728 254.104 52.24 254.56 51.912C255.024 51.584 255.588 51.42 256.252 51.42C256.924 51.42 257.488 51.584 257.944 51.912C258.408 52.24 258.756 52.724 258.988 53.364C259.22 54.004 259.336 54.796 259.336 55.74C259.336 56.676 259.216 57.472 258.976 58.128C258.744 58.776 258.4 59.272 257.944 59.616C257.488 59.952 256.924 60.12 256.252 60.12ZM256.252 58.86C256.796 58.86 257.196 58.612 257.452 58.116C257.716 57.612 257.848 56.82 257.848 55.74C257.848 54.668 257.716 53.892 257.452 53.412C257.196 52.924 256.796 52.68 256.252 52.68C255.716 52.68 255.316 52.924 255.052 53.412C254.788 53.892 254.656 54.672 254.656 55.752C254.656 56.824 254.788 57.612 255.052 58.116C255.316 58.612 255.716 58.86 256.252 58.86ZM263.647 60.12C262.983 60.12 262.419 59.952 261.955 59.616C261.499 59.272 261.151 58.776 260.911 58.128C260.679 57.48 260.563 56.688 260.563 55.752C260.563 54.808 260.679 54.016 260.911 53.376C261.151 52.728 261.499 52.24 261.955 51.912C262.419 51.584 262.983 51.42 263.647 51.42C264.319 51.42 264.883 51.584 265.339 51.912C265.803 52.24 266.151 52.724 266.383 53.364C266.615 54.004 266.731 54.796 266.731 55.74C266.731 56.676 266.611 57.472 266.371 58.128C266.139 58.776 265.795 59.272 265.339 59.616C264.883 59.952 264.319 60.12 263.647 60.12ZM263.647 58.86C264.191 58.86 264.591 58.612 264.847 58.116C265.111 57.612 265.243 56.82 265.243 55.74C265.243 54.668 265.111 53.892 264.847 53.412C264.591 52.924 264.191 52.68 263.647 52.68C263.111 52.68 262.711 52.924 262.447 53.412C262.183 53.892 262.051 54.672 262.051 55.752C262.051 56.824 262.183 57.612 262.447 58.116C262.711 58.612 263.111 58.86 263.647 58.86ZM271.042 60.12C270.378 60.12 269.814 59.952 269.35 59.616C268.894 59.272 268.546 58.776 268.306 58.128C268.074 57.48 267.958 56.688 267.958 55.752C267.958 54.808 268.074 54.016 268.306 53.376C268.546 52.728 268.894 52.24 269.35 51.912C269.814 51.584 270.378 51.42 271.042 51.42C271.714 51.42 272.278 51.584 272.734 51.912C273.198 52.24 273.546 52.724 273.778 53.364C274.01 54.004 274.126 54.796 274.126 55.74C274.126 56.676 274.006 57.472 273.766 58.128C273.534 58.776 273.19 59.272 272.734 59.616C272.278 59.952 271.714 60.12 271.042 60.12ZM271.042 58.86C271.586 58.86 271.986 58.612 272.242 58.116C272.506 57.612 272.638 56.82 272.638 55.74C272.638 54.668 272.506 53.892 272.242 53.412C271.986 52.924 271.586 52.68 271.042 52.68C270.506 52.68 270.106 52.924 269.842 53.412C269.578 53.892 269.446 54.672 269.446 55.752C269.446 56.824 269.578 57.612 269.842 58.116C270.106 58.612 270.506 58.86 271.042 58.86ZM276.217 61.596L275.605 61.116C275.781 60.94 275.917 60.772 276.013 60.612C276.109 60.46 276.177 60.304 276.217 60.144C276.265 59.984 276.289 59.82 276.289 59.652L276.613 60H275.485V58.332H277.165V59.436C277.165 59.708 277.133 59.964 277.069 60.204C277.013 60.444 276.917 60.676 276.781 60.9C276.645 61.132 276.457 61.364 276.217 61.596ZM281.614 60.12C280.95 60.12 280.386 59.952 279.922 59.616C279.466 59.272 279.118 58.776 278.878 58.128C278.646 57.48 278.53 56.688 278.53 55.752C278.53 54.808 278.646 54.016 278.878 53.376C279.118 52.728 279.466 52.24 279.922 51.912C280.386 51.584 280.95 51.42 281.614 51.42C282.286 51.42 282.85 51.584 283.306 51.912C283.77 52.24 284.118 52.724 284.35 53.364C284.582 54.004 284.698 54.796 284.698 55.74C284.698 56.676 284.578 57.472 284.338 58.128C284.106 58.776 283.762 59.272 283.306 59.616C282.85 59.952 282.286 60.12 281.614 60.12ZM281.614 58.86C282.158 58.86 282.558 58.612 282.814 58.116C283.078 57.612 283.21 56.82 283.21 55.74C283.21 54.668 283.078 53.892 282.814 53.412C282.558 52.924 282.158 52.68 281.614 52.68C281.078 52.68 280.678 52.924 280.414 53.412C280.15 53.892 280.018 54.672 280.018 55.752C280.018 56.824 280.15 57.612 280.414 58.116C280.678 58.612 281.078 58.86 281.614 58.86ZM289.009 60.12C288.345 60.12 287.781 59.952 287.317 59.616C286.861 59.272 286.513 58.776 286.273 58.128C286.041 57.48 285.925 56.688 285.925 55.752C285.925 54.808 286.041 54.016 286.273 53.376C286.513 52.728 286.861 52.24 287.317 51.912C287.781 51.584 288.345 51.42 289.009 51.42C289.681 51.42 290.245 51.584 290.701 51.912C291.165 52.24 291.513 52.724 291.745 53.364C291.977 54.004 292.093 54.796 292.093 55.74C292.093 56.676 291.973 57.472 291.733 58.128C291.501 58.776 291.157 59.272 290.701 59.616C290.245 59.952 289.681 60.12 289.009 60.12ZM289.009 58.86C289.553 58.86 289.953 58.612 290.209 58.116C290.473 57.612 290.605 56.82 290.605 55.74C290.605 54.668 290.473 53.892 290.209 53.412C289.953 52.924 289.553 52.68 289.009 52.68C288.473 52.68 288.073 52.924 287.809 53.412C287.545 53.892 287.413 54.672 287.413 55.752C287.413 56.824 287.545 57.612 287.809 58.116C288.073 58.612 288.473 58.86 289.009 58.86ZM296.405 60.12C295.741 60.12 295.177 59.952 294.713 59.616C294.257 59.272 293.909 58.776 293.669 58.128C293.437 57.48 293.321 56.688 293.321 55.752C293.321 54.808 293.437 54.016 293.669 53.376C293.909 52.728 294.257 52.24 294.713 51.912C295.177 51.584 295.741 51.42 296.405 51.42C297.077 51.42 297.641 51.584 298.097 51.912C298.561 52.24 298.909 52.724 299.141 53.364C299.373 54.004 299.489 54.796 299.489 55.74C299.489 56.676 299.369 57.472 299.129 58.128C298.897 58.776 298.553 59.272 298.097 59.616C297.641 59.952 297.077 60.12 296.405 60.12ZM296.405 58.86C296.949 58.86 297.349 58.612 297.605 58.116C297.869 57.612 298.001 56.82 298.001 55.74C298.001 54.668 297.869 53.892 297.605 53.412C297.349 52.924 296.949 52.68 296.405 52.68C295.869 52.68 295.469 52.924 295.205 53.412C294.941 53.892 294.809 54.672 294.809 55.752C294.809 56.824 294.941 57.612 295.205 58.116C295.469 58.612 295.869 58.86 296.405 58.86Z" fill="black"/>
<circle cx="7" cy="80" r="6" fill="#D9D9D9" stroke="#CCCCCC" stroke-width="2"/>
<path d="M28.924 84V75.54H32.62C33.508 75.54 34.196 75.736 34.684 76.128C35.172 76.512 35.416 77.048 35.416 77.736C35.416 78.248 35.268 78.68 34.972 79.032C34.676 79.384 34.272 79.62 33.76 79.74V79.56C34.152 79.616 34.488 79.736 34.768 79.92C35.048 80.104 35.26 80.34 35.404 80.628C35.556 80.916 35.632 81.252 35.632 81.636C35.632 82.132 35.516 82.56 35.284 82.92C35.06 83.272 34.732 83.54 34.3 83.724C33.868 83.908 33.352 84 32.752 84H28.924ZM30.4 82.836H32.56C32.776 82.836 32.968 82.82 33.136 82.788C33.312 82.756 33.46 82.708 33.58 82.644C33.708 82.572 33.812 82.484 33.892 82.38C33.98 82.276 34.044 82.156 34.084 82.02C34.124 81.884 34.144 81.732 34.144 81.564C34.144 81.388 34.124 81.232 34.084 81.096C34.044 80.96 33.98 80.844 33.892 80.748C33.812 80.644 33.708 80.56 33.58 80.496C33.46 80.424 33.312 80.372 33.136 80.34C32.968 80.308 32.776 80.292 32.56 80.292H30.4V82.836ZM30.4 79.128H32.356C32.884 79.128 33.276 79.028 33.532 78.828C33.796 78.62 33.928 78.316 33.928 77.916C33.928 77.516 33.796 77.216 33.532 77.016C33.276 76.808 32.884 76.704 32.356 76.704H30.4V79.128ZM39.9177 84.12C39.3097 84.12 38.7817 83.996 38.3337 83.748C37.8857 83.5 37.5377 83.148 37.2897 82.692C37.0417 82.228 36.9177 81.684 36.9177 81.06C36.9177 80.436 37.0417 79.896 37.2897 79.44C37.5377 78.984 37.8857 78.632 38.3337 78.384C38.7817 78.136 39.3097 78.012 39.9177 78.012C40.5257 78.012 41.0537 78.136 41.5017 78.384C41.9497 78.632 42.2977 78.984 42.5457 79.44C42.7937 79.896 42.9177 80.436 42.9177 81.06C42.9177 81.684 42.7937 82.228 42.5457 82.692C42.2977 83.148 41.9497 83.5 41.5017 83.748C41.0537 83.996 40.5257 84.12 39.9177 84.12ZM39.9177 82.98C40.3657 82.98 40.7257 82.82 40.9977 82.5C41.2697 82.172 41.4057 81.692 41.4057 81.06C41.4057 80.42 41.2697 79.944 40.9977 79.632C40.7257 79.312 40.3657 79.152 39.9177 79.152C39.4697 79.152 39.1097 79.312 38.8377 79.632C38.5657 79.944 38.4297 80.42 38.4297 81.06C38.4297 81.692 38.5657 82.172 38.8377 82.5C39.1097 82.82 39.4697 82.98 39.9177 82.98ZM47.0318 84.12C46.4238 84.12 45.8958 83.996 45.4478 83.748C44.9998 83.5 44.6518 83.148 44.4038 82.692C44.1558 82.228 44.0318 81.684 44.0318 81.06C44.0318 80.436 44.1558 79.896 44.4038 79.44C44.6518 78.984 44.9998 78.632 45.4478 78.384C45.8958 78.136 46.4238 78.012 47.0318 78.012C47.6398 78.012 48.1678 78.136 48.6158 78.384C49.0638 78.632 49.4118 78.984 49.6598 79.44C49.9078 79.896 50.0318 80.436 50.0318 81.06C50.0318 81.684 49.9078 82.228 49.6598 82.692C49.4118 83.148 49.0638 83.5 48.6158 83.748C48.1678 83.996 47.6398 84.12 47.0318 84.12ZM47.0318 82.98C47.4798 82.98 47.8398 82.82 48.1118 82.5C48.3838 82.172 48.5198 81.692 48.5198 81.06C48.5198 80.42 48.3838 79.944 48.1118 79.632C47.8398 79.312 47.4798 79.152 47.0318 79.152C46.5838 79.152 46.2238 79.312 45.9518 79.632C45.6798 79.944 45.5438 80.42 45.5438 81.06C45.5438 81.692 45.6798 82.172 45.9518 82.5C46.2238 82.82 46.5838 82.98 47.0318 82.98ZM54.0993 84.12C53.3153 84.12 52.7313 83.924 52.3473 83.532C51.9633 83.14 51.7713 82.568 51.7713 81.816V79.26H50.6433V78.132H51.7713V76.38H53.2713V78.132H55.0473V79.26H53.2713V81.732C53.2713 82.116 53.3553 82.404 53.5233 82.596C53.6913 82.788 53.9633 82.884 54.3393 82.884C54.4513 82.884 54.5673 82.872 54.6873 82.848C54.8073 82.816 54.9313 82.784 55.0593 82.752L55.2873 83.856C55.1433 83.936 54.9593 84 54.7353 84.048C54.5193 84.096 54.3073 84.12 54.0993 84.12ZM58.8701 84.12C58.2541 84.12 57.7181 83.996 57.2621 83.748C56.8061 83.492 56.4541 83.132 56.2061 82.668C55.9581 82.204 55.8341 81.66 55.8341 81.036C55.8341 80.412 55.9581 79.876 56.2061 79.428C56.4541 78.972 56.8061 78.624 57.2621 78.384C57.7181 78.136 58.2541 78.012 58.8701 78.012C59.2461 78.012 59.6181 78.072 59.9861 78.192C60.3541 78.312 60.6581 78.48 60.8981 78.696L60.4541 79.74C60.2461 79.556 60.0101 79.416 59.7461 79.32C59.4901 79.224 59.2421 79.176 59.0021 79.176C58.4821 79.176 58.0781 79.34 57.7901 79.668C57.5101 79.988 57.3701 80.448 57.3701 81.048C57.3701 81.64 57.5101 82.108 57.7901 82.452C58.0781 82.788 58.4821 82.956 59.0021 82.956C59.2341 82.956 59.4821 82.908 59.7461 82.812C60.0101 82.716 60.2461 82.572 60.4541 82.38L60.8981 83.436C60.6581 83.644 60.3501 83.812 59.9741 83.94C59.6061 84.06 59.2381 84.12 58.8701 84.12ZM63.9151 84.12C63.4911 84.12 63.1111 84.04 62.7751 83.88C62.4471 83.712 62.1871 83.488 61.9951 83.208C61.8111 82.928 61.7191 82.612 61.7191 82.26C61.7191 81.828 61.8311 81.488 62.0551 81.24C62.2791 80.984 62.6431 80.8 63.1471 80.688C63.6511 80.576 64.3271 80.52 65.1751 80.52H65.7751V81.384H65.1871C64.8111 81.384 64.4951 81.4 64.2391 81.432C63.9831 81.456 63.7751 81.5 63.6151 81.564C63.4631 81.62 63.3511 81.7 63.2791 81.804C63.2151 81.908 63.1831 82.036 63.1831 82.188C63.1831 82.452 63.2751 82.668 63.4591 82.836C63.6431 83.004 63.8991 83.088 64.2271 83.088C64.4911 83.088 64.7231 83.028 64.9231 82.908C65.1311 82.78 65.2951 82.608 65.4151 82.392C65.5351 82.176 65.5951 81.928 65.5951 81.648V80.268C65.5951 79.868 65.5071 79.58 65.3311 79.404C65.1551 79.228 64.8591 79.14 64.4431 79.14C64.1151 79.14 63.7791 79.192 63.4351 79.296C63.0911 79.392 62.7431 79.544 62.3911 79.752L61.9591 78.732C62.1671 78.588 62.4111 78.464 62.6911 78.36C62.9791 78.248 63.2791 78.164 63.5911 78.108C63.9111 78.044 64.2111 78.012 64.4911 78.012C65.0671 78.012 65.5391 78.1 65.9071 78.276C66.2831 78.452 66.5631 78.72 66.7471 79.08C66.9311 79.432 67.0231 79.888 67.0231 80.448V84H65.6191V82.752H65.7151C65.6591 83.032 65.5471 83.276 65.3791 83.484C65.2191 83.684 65.0151 83.84 64.7671 83.952C64.5191 84.064 64.2351 84.12 63.9151 84.12ZM68.7696 84V78.132H70.2336V79.308H70.1016C70.2056 79.036 70.3496 78.804 70.5336 78.612C70.7176 78.42 70.9376 78.272 71.1936 78.168C71.4496 78.064 71.7336 78.012 72.0456 78.012C72.5176 78.012 72.9056 78.124 73.2096 78.348C73.5136 78.572 73.7256 78.916 73.8456 79.38H73.6776C73.8376 78.956 74.1016 78.624 74.4696 78.384C74.8376 78.136 75.2616 78.012 75.7416 78.012C76.1896 78.012 76.5576 78.1 76.8456 78.276C77.1416 78.452 77.3616 78.72 77.5056 79.08C77.6496 79.432 77.7216 79.88 77.7216 80.424V84H76.2216V80.484C76.2216 80.036 76.1456 79.708 75.9936 79.5C75.8496 79.292 75.6016 79.188 75.2496 79.188C74.9936 79.188 74.7696 79.252 74.5776 79.38C74.3856 79.5 74.2376 79.676 74.1336 79.908C74.0376 80.14 73.9896 80.42 73.9896 80.748V84H72.4896V80.484C72.4896 80.036 72.4136 79.708 72.2616 79.5C72.1176 79.292 71.8736 79.188 71.5296 79.188C71.2656 79.188 71.0376 79.252 70.8456 79.38C70.6616 79.5 70.5176 79.676 70.4136 79.908C70.3176 80.14 70.2696 80.42 70.2696 80.748V84H68.7696ZM79.4691 86.16V78.132H80.9331V79.368H80.8131C80.9331 78.96 81.1771 78.632 81.5451 78.384C81.9211 78.136 82.3571 78.012 82.8531 78.012C83.3651 78.012 83.8131 78.136 84.1971 78.384C84.5891 78.632 84.8931 78.984 85.1091 79.44C85.3251 79.888 85.4331 80.428 85.4331 81.06C85.4331 81.684 85.3251 82.228 85.1091 82.692C84.8931 83.148 84.5931 83.5 84.2091 83.748C83.8251 83.996 83.3731 84.12 82.8531 84.12C82.3651 84.12 81.9371 84 81.5691 83.76C81.2011 83.512 80.9531 83.192 80.8251 82.8H80.9691V86.16H79.4691ZM82.4331 82.98C82.8811 82.98 83.2411 82.82 83.5131 82.5C83.7851 82.172 83.9211 81.692 83.9211 81.06C83.9211 80.42 83.7851 79.944 83.5131 79.632C83.2411 79.312 82.8811 79.152 82.4331 79.152C81.9851 79.152 81.6251 79.312 81.3531 79.632C81.0811 79.944 80.9451 80.42 80.9451 81.06C80.9451 81.692 81.0811 82.172 81.3531 82.5C81.6251 82.82 81.9851 82.98 82.4331 82.98ZM90.4427 84V75.54H93.5867C94.5307 75.54 95.3307 75.704 95.9867 76.032C96.6507 76.36 97.1547 76.84 97.4987 77.472C97.8507 78.096 98.0267 78.86 98.0267 79.764C98.0267 80.668 97.8507 81.436 97.4987 82.068C97.1547 82.7 96.6507 83.18 95.9867 83.508C95.3307 83.836 94.5307 84 93.5867 84H90.4427ZM91.9787 82.728H93.4907C94.4747 82.728 95.2067 82.484 95.6867 81.996C96.1747 81.5 96.4187 80.756 96.4187 79.764C96.4187 78.772 96.1747 78.032 95.6867 77.544C95.1987 77.056 94.4667 76.812 93.4907 76.812H91.9787V82.728ZM102.531 84.12C101.867 84.12 101.295 83.996 100.815 83.748C100.335 83.5 99.9634 83.148 99.6994 82.692C99.4434 82.236 99.3154 81.696 99.3154 81.072C99.3154 80.464 99.4394 79.932 99.6874 79.476C99.9434 79.02 100.291 78.664 100.731 78.408C101.179 78.144 101.687 78.012 102.255 78.012C102.815 78.012 103.295 78.132 103.695 78.372C104.095 78.612 104.403 78.952 104.619 79.392C104.843 79.832 104.955 80.356 104.955 80.964V81.408H100.527V80.544H103.899L103.707 80.724C103.707 80.18 103.587 79.764 103.347 79.476C103.107 79.18 102.763 79.032 102.315 79.032C101.979 79.032 101.691 79.112 101.451 79.272C101.219 79.424 101.039 79.644 100.911 79.932C100.791 80.212 100.731 80.548 100.731 80.94V81.024C100.731 81.464 100.799 81.828 100.935 82.116C101.071 82.404 101.275 82.62 101.547 82.764C101.819 82.908 102.155 82.98 102.555 82.98C102.883 82.98 103.211 82.932 103.539 82.836C103.867 82.732 104.167 82.572 104.439 82.356L104.859 83.364C104.579 83.596 104.227 83.78 103.803 83.916C103.379 84.052 102.955 84.12 102.531 84.12ZM108.491 84.12C108.163 84.12 107.843 84.092 107.531 84.036C107.227 83.98 106.947 83.904 106.691 83.808C106.435 83.704 106.211 83.576 106.019 83.424L106.403 82.44C106.603 82.568 106.819 82.68 107.051 82.776C107.283 82.872 107.523 82.944 107.771 82.992C108.019 83.04 108.263 83.064 108.503 83.064C108.887 83.064 109.171 83 109.355 82.872C109.547 82.736 109.643 82.56 109.643 82.344C109.643 82.16 109.579 82.02 109.451 81.924C109.331 81.82 109.147 81.744 108.899 81.696L107.699 81.468C107.203 81.372 106.823 81.192 106.559 80.928C106.303 80.656 106.175 80.308 106.175 79.884C106.175 79.5 106.279 79.168 106.487 78.888C106.703 78.608 106.999 78.392 107.375 78.24C107.751 78.088 108.183 78.012 108.671 78.012C108.951 78.012 109.223 78.04 109.487 78.096C109.751 78.144 109.999 78.22 110.231 78.324C110.471 78.42 110.679 78.548 110.855 78.708L110.447 79.692C110.295 79.564 110.119 79.456 109.919 79.368C109.719 79.272 109.511 79.2 109.295 79.152C109.087 79.096 108.883 79.068 108.683 79.068C108.291 79.068 107.999 79.136 107.807 79.272C107.623 79.408 107.531 79.588 107.531 79.812C107.531 79.98 107.587 80.12 107.699 80.232C107.811 80.344 107.983 80.42 108.215 80.46L109.415 80.688C109.935 80.784 110.327 80.96 110.591 81.216C110.863 81.472 110.999 81.816 110.999 82.248C110.999 82.64 110.895 82.976 110.687 83.256C110.479 83.536 110.187 83.752 109.811 83.904C109.435 84.048 108.995 84.12 108.491 84.12ZM112.307 76.872V75.408H113.987V76.872H112.307ZM112.403 84V78.132H113.903V84H112.403ZM118.397 86.28C117.853 86.28 117.341 86.216 116.861 86.088C116.389 85.968 115.973 85.78 115.613 85.524L116.045 84.48C116.269 84.624 116.505 84.744 116.753 84.84C117.001 84.944 117.253 85.02 117.509 85.068C117.765 85.116 118.021 85.14 118.277 85.14C118.813 85.14 119.213 85.008 119.477 84.744C119.749 84.488 119.885 84.104 119.885 83.592V82.512H119.993C119.873 82.92 119.621 83.248 119.237 83.496C118.861 83.736 118.433 83.856 117.953 83.856C117.425 83.856 116.965 83.736 116.573 83.496C116.181 83.248 115.877 82.904 115.661 82.464C115.445 82.024 115.337 81.512 115.337 80.928C115.337 80.344 115.445 79.836 115.661 79.404C115.877 78.964 116.181 78.624 116.573 78.384C116.965 78.136 117.425 78.012 117.953 78.012C118.449 78.012 118.881 78.136 119.249 78.384C119.625 78.624 119.869 78.944 119.981 79.344H119.885V78.132H121.349V83.412C121.349 84.044 121.237 84.572 121.013 84.996C120.789 85.428 120.457 85.748 120.017 85.956C119.577 86.172 119.037 86.28 118.397 86.28ZM118.361 82.716C118.825 82.716 119.193 82.556 119.465 82.236C119.737 81.916 119.873 81.48 119.873 80.928C119.873 80.376 119.737 79.944 119.465 79.632C119.193 79.312 118.825 79.152 118.361 79.152C117.897 79.152 117.529 79.312 117.257 79.632C116.985 79.944 116.849 80.376 116.849 80.928C116.849 81.48 116.985 81.916 117.257 82.236C117.529 82.556 117.897 82.716 118.361 82.716ZM123.103 84V78.132H124.567V79.308H124.435C124.611 78.884 124.883 78.564 125.251 78.348C125.627 78.124 126.051 78.012 126.523 78.012C126.995 78.012 127.383 78.1 127.687 78.276C127.991 78.452 128.219 78.72 128.371 79.08C128.523 79.432 128.599 79.88 128.599 80.424V84H127.099V80.496C127.099 80.192 127.059 79.944 126.979 79.752C126.907 79.56 126.791 79.42 126.631 79.332C126.479 79.236 126.283 79.188 126.043 79.188C125.755 79.188 125.503 79.252 125.287 79.38C125.071 79.5 124.903 79.676 124.783 79.908C124.663 80.132 124.603 80.396 124.603 80.7V84H123.103Z" fill="black"/>
<path d="M234.319 84V75.54H237.991C238.919 75.54 239.635 75.764 240.139 76.212C240.643 76.652 240.895 77.272 240.895 78.072C240.895 78.592 240.779 79.04 240.547 79.416C240.323 79.792 239.995 80.08 239.563 80.28C239.131 80.48 238.607 80.58 237.991 80.58L238.099 80.4H238.495C238.823 80.4 239.107 80.48 239.347 80.64C239.595 80.8 239.811 81.052 239.995 81.396L241.411 84H239.719L238.255 81.3C238.159 81.124 238.051 80.988 237.931 80.892C237.811 80.788 237.675 80.716 237.523 80.676C237.371 80.636 237.195 80.616 236.995 80.616H235.855V84H234.319ZM235.855 79.476H237.727C238.279 79.476 238.695 79.364 238.975 79.14C239.263 78.908 239.407 78.564 239.407 78.108C239.407 77.66 239.263 77.324 238.975 77.1C238.695 76.868 238.279 76.752 237.727 76.752H235.855V79.476ZM242.602 86.16V78.132H244.066V79.368H243.946C244.066 78.96 244.31 78.632 244.678 78.384C245.054 78.136 245.49 78.012 245.986 78.012C246.498 78.012 246.946 78.136 247.33 78.384C247.722 78.632 248.026 78.984 248.242 79.44C248.458 79.888 248.566 80.428 248.566 81.06C248.566 81.684 248.458 82.228 248.242 82.692C248.026 83.148 247.726 83.5 247.342 83.748C246.958 83.996 246.506 84.12 245.986 84.12C245.498 84.12 245.07 84 244.702 83.76C244.334 83.512 244.086 83.192 243.958 82.8H244.102V86.16H242.602ZM245.566 82.98C246.014 82.98 246.374 82.82 246.646 82.5C246.918 82.172 247.054 81.692 247.054 81.06C247.054 80.42 246.918 79.944 246.646 79.632C246.374 79.312 246.014 79.152 245.566 79.152C245.118 79.152 244.758 79.312 244.486 79.632C244.214 79.944 244.078 80.42 244.078 81.06C244.078 81.692 244.214 82.172 244.486 82.5C244.758 82.82 245.118 82.98 245.566 82.98ZM256.324 84.12C255.956 84.12 255.592 84.08 255.232 84C254.88 83.92 254.548 83.808 254.236 83.664C253.932 83.52 253.668 83.352 253.444 83.16L253.948 81.984C254.316 82.264 254.696 82.476 255.088 82.62C255.48 82.756 255.884 82.824 256.3 82.824C256.804 82.824 257.196 82.696 257.476 82.44C257.764 82.176 257.908 81.824 257.908 81.384C257.908 80.936 257.772 80.576 257.5 80.304C257.228 80.024 256.856 79.884 256.384 79.884C256.04 79.884 255.732 79.952 255.46 80.088C255.188 80.216 254.94 80.416 254.716 80.688H253.684V75.54H258.88V76.812H255.184V79.5H254.788C254.996 79.22 255.268 79.004 255.604 78.852C255.948 78.7 256.328 78.624 256.744 78.624C257.28 78.624 257.744 78.74 258.136 78.972C258.536 79.196 258.844 79.512 259.06 79.92C259.284 80.32 259.396 80.788 259.396 81.324C259.396 81.876 259.272 82.364 259.024 82.788C258.776 83.204 258.42 83.532 257.956 83.772C257.5 84.004 256.956 84.12 256.324 84.12ZM263.647 84.12C262.983 84.12 262.419 83.952 261.955 83.616C261.499 83.272 261.151 82.776 260.911 82.128C260.679 81.48 260.563 80.688 260.563 79.752C260.563 78.808 260.679 78.016 260.911 77.376C261.151 76.728 261.499 76.24 261.955 75.912C262.419 75.584 262.983 75.42 263.647 75.42C264.319 75.42 264.883 75.584 265.339 75.912C265.803 76.24 266.151 76.724 266.383 77.364C266.615 78.004 266.731 78.796 266.731 79.74C266.731 80.676 266.611 81.472 266.371 82.128C266.139 82.776 265.795 83.272 265.339 83.616C264.883 83.952 264.319 84.12 263.647 84.12ZM263.647 82.86C264.191 82.86 264.591 82.612 264.847 82.116C265.111 81.612 265.243 80.82 265.243 79.74C265.243 78.668 265.111 77.892 264.847 77.412C264.591 76.924 264.191 76.68 263.647 76.68C263.111 76.68 262.711 76.924 262.447 77.412C262.183 77.892 262.051 78.672 262.051 79.752C262.051 80.824 262.183 81.612 262.447 82.116C262.711 82.612 263.111 82.86 263.647 82.86ZM271.042 84.12C270.378 84.12 269.814 83.952 269.35 83.616C268.894 83.272 268.546 82.776 268.306 82.128C268.074 81.48 267.958 80.688 267.958 79.752C267.958 78.808 268.074 78.016 268.306 77.376C268.546 76.728 268.894 76.24 269.35 75.912C269.814 75.584 270.378 75.42 271.042 75.42C271.714 75.42 272.278 75.584 272.734 75.912C273.198 76.24 273.546 76.724 273.778 77.364C274.01 78.004 274.126 78.796 274.126 79.74C274.126 80.676 274.006 81.472 273.766 82.128C273.534 82.776 273.19 83.272 272.734 83.616C272.278 83.952 271.714 84.12 271.042 84.12ZM271.042 82.86C271.586 82.86 271.986 82.612 272.242 82.116C272.506 81.612 272.638 80.82 272.638 79.74C272.638 78.668 272.506 77.892 272.242 77.412C271.986 76.924 271.586 76.68 271.042 76.68C270.506 76.68 270.106 76.924 269.842 77.412C269.578 77.892 269.446 78.672 269.446 79.752C269.446 80.824 269.578 81.612 269.842 82.116C270.106 82.612 270.506 82.86 271.042 82.86ZM276.217 85.596L275.605 85.116C275.781 84.94 275.917 84.772 276.013 84.612C276.109 84.46 276.177 84.304 276.217 84.144C276.265 83.984 276.289 83.82 276.289 83.652L276.613 84H275.485V82.332H277.165V83.436C277.165 83.708 277.133 83.964 277.069 84.204C277.013 84.444 276.917 84.676 276.781 84.9C276.645 85.132 276.457 85.364 276.217 85.596ZM281.614 84.12C280.95 84.12 280.386 83.952 279.922 83.616C279.466 83.272 279.118 82.776 278.878 82.128C278.646 81.48 278.53 80.688 278.53 79.752C278.53 78.808 278.646 78.016 278.878 77.376C279.118 76.728 279.466 76.24 279.922 75.912C280.386 75.584 280.95 75.42 281.614 75.42C282.286 75.42 282.85 75.584 283.306 75.912C283.77 76.24 284.118 76.724 284.35 77.364C284.582 78.004 284.698 78.796 284.698 79.74C284.698 80.676 284.578 81.472 284.338 82.128C284.106 82.776 283.762 83.272 283.306 83.616C282.85 83.952 282.286 84.12 281.614 84.12ZM281.614 82.86C282.158 82.86 282.558 82.612 282.814 82.116C283.078 81.612 283.21 80.82 283.21 79.74C283.21 78.668 283.078 77.892 282.814 77.412C282.558 76.924 282.158 76.68 281.614 76.68C281.078 76.68 280.678 76.924 280.414 77.412C280.15 77.892 280.018 78.672 280.018 79.752C280.018 80.824 280.15 81.612 280.414 82.116C280.678 82.612 281.078 82.86 281.614 82.86ZM289.009 84.12C288.345 84.12 287.781 83.952 287.317 83.616C286.861 83.272 286.513 82.776 286.273 82.128C286.041 81.48 285.925 80.688 285.925 79.752C285.925 78.808 286.041 78.016 286.273 77.376C286.513 76.728 286.861 76.24 287.317 75.912C287.781 75.584 288.345 75.42 289.009 75.42C289.681 75.42 290.245 75.584 290.701 75.912C291.165 76.24 291.513 76.724 291.745 77.364C291.977 78.004 292.093 78.796 292.093 79.74C292.093 80.676 291.973 81.472 291.733 82.128C291.501 82.776 291.157 83.272 290.701 83.616C290.245 83.952 289.681 84.12 289.009 84.12ZM289.009 82.86C289.553 82.86 289.953 82.612 290.209 82.116C290.473 81.612 290.605 80.82 290.605 79.74C290.605 78.668 290.473 77.892 290.209 77.412C289.953 76.924 289.553 76.68 289.009 76.68C288.473 76.68 288.073 76.924 287.809 77.412C287.545 77.892 287.413 78.672 287.413 79.752C287.413 80.824 287.545 81.612 287.809 82.116C288.073 82.612 288.473 82.86 289.009 82.86ZM296.405 84.12C295.741 84.12 295.177 83.952 294.713 83.616C294.257 83.272 293.909 82.776 293.669 82.128C293.437 81.48 293.321 80.688 293.321 79.752C293.321 78.808 293.437 78.016 293.669 77.376C293.909 76.728 294.257 76.24 294.713 75.912C295.177 75.584 295.741 75.42 296.405 75.42C297.077 75.42 297.641 75.584 298.097 75.912C298.561 76.24 298.909 76.724 299.141 77.364C299.373 78.004 299.489 78.796 299.489 79.74C299.489 80.676 299.369 81.472 299.129 82.128C298.897 82.776 298.553 83.272 298.097 83.616C297.641 83.952 297.077 84.12 296.405 84.12ZM296.405 82.86C296.949 82.86 297.349 82.612 297.605 82.116C297.869 81.612 298.001 80.82 298.001 79.74C298.001 78.668 297.869 77.892 297.605 77.412C297.349 76.924 296.949 76.68 296.405 76.68C295.869 76.68 295.469 76.924 295.205 77.412C294.941 77.892 294.809 78.672 294.809 79.752C294.809 80.824 294.941 81.612 295.205 82.116C295.469 82.612 295.869 82.86 296.405 82.86Z" fill="black"/>
<circle cx="7" cy="104" r="6" fill="#D9D9D9" stroke="#CCCCCC" stroke-width="2"/>
<path d="M30.964 108V100.824H28.06V99.54H35.404V100.824H32.5V108H30.964ZM36.4331 108V99.54H37.9331V103.308H37.7651C37.9411 102.884 38.2131 102.564 38.5811 102.348C38.9571 102.124 39.3811 102.012 39.8531 102.012C40.3251 102.012 40.7131 102.1 41.0171 102.276C41.3211 102.452 41.5491 102.72 41.7011 103.08C41.8531 103.432 41.9291 103.88 41.9291 104.424V108H40.4291V104.496C40.4291 104.192 40.3891 103.944 40.3091 103.752C40.2371 103.56 40.1211 103.42 39.9611 103.332C39.8091 103.236 39.6131 103.188 39.3731 103.188C39.0851 103.188 38.8331 103.252 38.6171 103.38C38.4011 103.5 38.2331 103.676 38.1131 103.908C37.9931 104.132 37.9331 104.396 37.9331 104.7V108H36.4331ZM46.5447 108.12C45.8807 108.12 45.3087 107.996 44.8287 107.748C44.3487 107.5 43.9767 107.148 43.7127 106.692C43.4567 106.236 43.3287 105.696 43.3287 105.072C43.3287 104.464 43.4527 103.932 43.7007 103.476C43.9567 103.02 44.3047 102.664 44.7447 102.408C45.1927 102.144 45.7007 102.012 46.2687 102.012C46.8287 102.012 47.3087 102.132 47.7087 102.372C48.1087 102.612 48.4167 102.952 48.6327 103.392C48.8567 103.832 48.9687 104.356 48.9687 104.964V105.408H44.5407V104.544H47.9127L47.7207 104.724C47.7207 104.18 47.6007 103.764 47.3607 103.476C47.1207 103.18 46.7767 103.032 46.3287 103.032C45.9927 103.032 45.7047 103.112 45.4647 103.272C45.2327 103.424 45.0527 103.644 44.9247 103.932C44.8047 104.212 44.7447 104.548 44.7447 104.94V105.024C44.7447 105.464 44.8127 105.828 44.9487 106.116C45.0847 106.404 45.2887 106.62 45.5607 106.764C45.8327 106.908 46.1687 106.98 46.5687 106.98C46.8967 106.98 47.2247 106.932 47.5527 106.836C47.8807 106.732 48.1807 106.572 48.4527 106.356L48.8727 107.364C48.5927 107.596 48.2407 107.78 47.8167 107.916C47.3927 108.052 46.9687 108.12 46.5447 108.12ZM52.5046 108.12C52.1766 108.12 51.8566 108.092 51.5446 108.036C51.2406 107.98 50.9606 107.904 50.7046 107.808C50.4486 107.704 50.2246 107.576 50.0326 107.424L50.4166 106.44C50.6166 106.568 50.8326 106.68 51.0646 106.776C51.2966 106.872 51.5366 106.944 51.7846 106.992C52.0326 107.04 52.2766 107.064 52.5166 107.064C52.9006 107.064 53.1846 107 53.3686 106.872C53.5606 106.736 53.6566 106.56 53.6566 106.344C53.6566 106.16 53.5926 106.02 53.4646 105.924C53.3446 105.82 53.1606 105.744 52.9126 105.696L51.7126 105.468C51.2166 105.372 50.8366 105.192 50.5726 104.928C50.3166 104.656 50.1886 104.308 50.1886 103.884C50.1886 103.5 50.2926 103.168 50.5006 102.888C50.7166 102.608 51.0126 102.392 51.3886 102.24C51.7646 102.088 52.1966 102.012 52.6846 102.012C52.9646 102.012 53.2366 102.04 53.5006 102.096C53.7646 102.144 54.0126 102.22 54.2446 102.324C54.4846 102.42 54.6926 102.548 54.8686 102.708L54.4606 103.692C54.3086 103.564 54.1326 103.456 53.9326 103.368C53.7326 103.272 53.5246 103.2 53.3086 103.152C53.1006 103.096 52.8966 103.068 52.6966 103.068C52.3046 103.068 52.0126 103.136 51.8206 103.272C51.6366 103.408 51.5446 103.588 51.5446 103.812C51.5446 103.98 51.6006 104.12 51.7126 104.232C51.8246 104.344 51.9966 104.42 52.2286 104.46L53.4286 104.688C53.9486 104.784 54.3406 104.96 54.6046 105.216C54.8766 105.472 55.0126 105.816 55.0126 106.248C55.0126 106.64 54.9086 106.976 54.7006 107.256C54.4926 107.536 54.2006 107.752 53.8246 107.904C53.4486 108.048 53.0086 108.12 52.5046 108.12ZM56.3199 100.872V99.408H57.9999V100.872H56.3199ZM56.4159 108V102.132H57.9159V108H56.4159ZM61.8225 108.12C61.4945 108.12 61.1745 108.092 60.8625 108.036C60.5585 107.98 60.2785 107.904 60.0225 107.808C59.7665 107.704 59.5425 107.576 59.3505 107.424L59.7345 106.44C59.9345 106.568 60.1505 106.68 60.3825 106.776C60.6145 106.872 60.8545 106.944 61.1025 106.992C61.3505 107.04 61.5945 107.064 61.8345 107.064C62.2185 107.064 62.5025 107 62.6865 106.872C62.8785 106.736 62.9745 106.56 62.9745 106.344C62.9745 106.16 62.9105 106.02 62.7825 105.924C62.6625 105.82 62.4785 105.744 62.2305 105.696L61.0305 105.468C60.5345 105.372 60.1545 105.192 59.8905 104.928C59.6345 104.656 59.5065 104.308 59.5065 103.884C59.5065 103.5 59.6105 103.168 59.8185 102.888C60.0345 102.608 60.3305 102.392 60.7065 102.24C61.0825 102.088 61.5145 102.012 62.0025 102.012C62.2825 102.012 62.5545 102.04 62.8185 102.096C63.0825 102.144 63.3305 102.22 63.5625 102.324C63.8025 102.42 64.0105 102.548 64.1865 102.708L63.7785 103.692C63.6265 103.564 63.4505 103.456 63.2505 103.368C63.0505 103.272 62.8425 103.2 62.6265 103.152C62.4185 103.096 62.2145 103.068 62.0145 103.068C61.6225 103.068 61.3305 103.136 61.1385 103.272C60.9545 103.408 60.8625 103.588 60.8625 103.812C60.8625 103.98 60.9185 104.12 61.0305 104.232C61.1425 104.344 61.3145 104.42 61.5465 104.46L62.7465 104.688C63.2665 104.784 63.6585 104.96 63.9225 105.216C64.1945 105.472 64.3305 105.816 64.3305 106.248C64.3305 106.64 64.2265 106.976 64.0185 107.256C63.8105 107.536 63.5185 107.752 63.1425 107.904C62.7665 108.048 62.3265 108.12 61.8225 108.12ZM69.3123 108V99.54H72.9843C73.6083 99.54 74.1363 99.644 74.5683 99.852C75.0003 100.06 75.3283 100.36 75.5523 100.752C75.7763 101.144 75.8883 101.62 75.8883 102.18C75.8883 102.732 75.7763 103.208 75.5523 103.608C75.3283 104 75.0003 104.304 74.5683 104.52C74.1363 104.728 73.6083 104.832 72.9843 104.832H70.8483V108H69.3123ZM70.8483 103.62H72.7443C73.2883 103.62 73.7003 103.5 73.9803 103.26C74.2603 103.012 74.4003 102.652 74.4003 102.18C74.4003 101.708 74.2603 101.352 73.9803 101.112C73.7003 100.872 73.2883 100.752 72.7443 100.752H70.8483V103.62ZM77.0792 108V102.132H78.5432V103.548H78.4232C78.5352 103.068 78.7552 102.704 79.0832 102.456C79.4112 102.2 79.8472 102.052 80.3912 102.012L80.8472 101.976L80.9432 103.248L80.0792 103.332C79.5912 103.38 79.2232 103.532 78.9752 103.788C78.7272 104.036 78.6032 104.388 78.6032 104.844V108H77.0792ZM84.5607 108.12C83.9527 108.12 83.4247 107.996 82.9767 107.748C82.5287 107.5 82.1807 107.148 81.9327 106.692C81.6847 106.228 81.5607 105.684 81.5607 105.06C81.5607 104.436 81.6847 103.896 81.9327 103.44C82.1807 102.984 82.5287 102.632 82.9767 102.384C83.4247 102.136 83.9527 102.012 84.5607 102.012C85.1687 102.012 85.6967 102.136 86.1447 102.384C86.5927 102.632 86.9407 102.984 87.1887 103.44C87.4367 103.896 87.5607 104.436 87.5607 105.06C87.5607 105.684 87.4367 106.228 87.1887 106.692C86.9407 107.148 86.5927 107.5 86.1447 107.748C85.6967 107.996 85.1687 108.12 84.5607 108.12ZM84.5607 106.98C85.0087 106.98 85.3687 106.82 85.6407 106.5C85.9127 106.172 86.0487 105.692 86.0487 105.06C86.0487 104.42 85.9127 103.944 85.6407 103.632C85.3687 103.312 85.0087 103.152 84.5607 103.152C84.1127 103.152 83.7527 103.312 83.4807 103.632C83.2087 103.944 83.0727 104.42 83.0727 105.06C83.0727 105.692 83.2087 106.172 83.4807 106.5C83.7527 106.82 84.1127 106.98 84.5607 106.98ZM88.9508 100.872V99.408H90.6308V100.872H88.9508ZM87.6787 110.316L87.5707 109.224L88.1227 109.164C88.4348 109.124 88.6668 109.016 88.8188 108.84C88.9708 108.672 89.0468 108.42 89.0468 108.084V102.132H90.5468V107.892C90.5468 108.284 90.5028 108.624 90.4148 108.912C90.3268 109.2 90.1908 109.44 90.0068 109.632C89.8228 109.824 89.5788 109.972 89.2748 110.076C88.9788 110.18 88.6188 110.248 88.1947 110.28L87.6787 110.316ZM95.1962 108.12C94.5322 108.12 93.9602 107.996 93.4802 107.748C93.0002 107.5 92.6282 107.148 92.3642 106.692C92.1082 106.236 91.9802 105.696 91.9802 105.072C91.9802 104.464 92.1042 103.932 92.3522 103.476C92.6082 103.02 92.9562 102.664 93.3962 102.408C93.8442 102.144 94.3522 102.012 94.9202 102.012C95.4802 102.012 95.9602 102.132 96.3602 102.372C96.7602 102.612 97.0682 102.952 97.2842 103.392C97.5082 103.832 97.6202 104.356 97.6202 104.964V105.408H93.1922V104.544H96.5642L96.3722 104.724C96.3722 104.18 96.2522 103.764 96.0122 103.476C95.7722 103.18 95.4282 103.032 94.9802 103.032C94.6442 103.032 94.3562 103.112 94.1162 103.272C93.8842 103.424 93.7042 103.644 93.5762 103.932C93.4562 104.212 93.3962 104.548 93.3962 104.94V105.024C93.3962 105.464 93.4642 105.828 93.6002 106.116C93.7362 106.404 93.9402 106.62 94.2122 106.764C94.4842 106.908 94.8202 106.98 95.2202 106.98C95.5482 106.98 95.8762 106.932 96.2042 106.836C96.5322 106.732 96.8322 106.572 97.1042 106.356L97.5242 107.364C97.2442 107.596 96.8922 107.78 96.4682 107.916C96.0442 108.052 95.6202 108.12 95.1962 108.12ZM101.72 108.12C101.104 108.12 100.568 107.996 100.112 107.748C99.6561 107.492 99.3041 107.132 99.0561 106.668C98.8081 106.204 98.6841 105.66 98.6841 105.036C98.6841 104.412 98.8081 103.876 99.0561 103.428C99.3041 102.972 99.6561 102.624 100.112 102.384C100.568 102.136 101.104 102.012 101.72 102.012C102.096 102.012 102.468 102.072 102.836 102.192C103.204 102.312 103.508 102.48 103.748 102.696L103.304 103.74C103.096 103.556 102.86 103.416 102.596 103.32C102.34 103.224 102.092 103.176 101.852 103.176C101.332 103.176 100.928 103.34 100.64 103.668C100.36 103.988 100.22 104.448 100.22 105.048C100.22 105.64 100.36 106.108 100.64 106.452C100.928 106.788 101.332 106.956 101.852 106.956C102.084 106.956 102.332 106.908 102.596 106.812C102.86 106.716 103.096 106.572 103.304 106.38L103.748 107.436C103.508 107.644 103.2 107.812 102.824 107.94C102.456 108.06 102.088 108.12 101.72 108.12ZM107.58 108.12C106.796 108.12 106.212 107.924 105.828 107.532C105.444 107.14 105.252 106.568 105.252 105.816V103.26H104.124V102.132H105.252V100.38H106.752V102.132H108.528V103.26H106.752V105.732C106.752 106.116 106.836 106.404 107.004 106.596C107.172 106.788 107.444 106.884 107.82 106.884C107.932 106.884 108.048 106.872 108.168 106.848C108.288 106.816 108.412 106.784 108.54 106.752L108.768 107.856C108.624 107.936 108.44 108 108.216 108.048C108 108.096 107.788 108.12 107.58 108.12Z" fill="black"/>
<path d="M223.747 108V99.54H227.419C228.347 99.54 229.063 99.764 229.567 100.212C230.071 100.652 230.323 101.272 230.323 102.072C230.323 102.592 230.207 103.04 229.975 103.416C229.751 103.792 229.423 104.08 228.991 104.28C228.559 104.48 228.035 104.58 227.419 104.58L227.527 104.4H227.923C228.251 104.4 228.535 104.48 228.775 104.64C229.023 104.8 229.239 105.052 229.423 105.396L230.839 108H229.147L227.683 105.3C227.587 105.124 227.479 104.988 227.359 104.892C227.239 104.788 227.103 104.716 226.951 104.676C226.799 104.636 226.623 104.616 226.423 104.616H225.283V108H223.747ZM225.283 103.476H227.155C227.707 103.476 228.123 103.364 228.403 103.14C228.691 102.908 228.835 102.564 228.835 102.108C228.835 101.66 228.691 101.324 228.403 101.1C228.123 100.868 227.707 100.752 227.155 100.752H225.283V103.476ZM232.03 110.16V102.132H233.494V103.368H233.374C233.494 102.96 233.738 102.632 234.106 102.384C234.482 102.136 234.918 102.012 235.414 102.012C235.926 102.012 236.374 102.136 236.758 102.384C237.15 102.632 237.454 102.984 237.67 103.44C237.886 103.888 237.994 104.428 237.994 105.06C237.994 105.684 237.886 106.228 237.67 106.692C237.454 107.148 237.154 107.5 236.77 107.748C236.386 107.996 235.934 108.12 235.414 108.12C234.926 108.12 234.498 108 234.13 107.76C233.762 107.512 233.514 107.192 233.386 106.8H233.53V110.16H232.03ZM234.994 106.98C235.442 106.98 235.802 106.82 236.074 106.5C236.346 106.172 236.482 105.692 236.482 105.06C236.482 104.42 236.346 103.944 236.074 103.632C235.802 103.312 235.442 103.152 234.994 103.152C234.546 103.152 234.186 103.312 233.914 103.632C233.642 103.944 233.506 104.42 233.506 105.06C233.506 105.692 233.642 106.172 233.914 106.5C234.186 106.82 234.546 106.98 234.994 106.98ZM243.388 108V106.728H245.296V100.836H246.04L243.82 102.18L243.22 101.052L245.74 99.54H246.832V106.728H248.62V108H243.388ZM250.855 109.596L250.243 109.116C250.419 108.94 250.555 108.772 250.651 108.612C250.747 108.46 250.815 108.304 250.855 108.144C250.903 107.984 250.927 107.82 250.927 107.652L251.251 108H250.123V106.332H251.803V107.436C251.803 107.708 251.771 107.964 251.707 108.204C251.651 108.444 251.555 108.676 251.419 108.9C251.283 109.132 251.095 109.364 250.855 109.596ZM256.252 108.12C255.588 108.12 255.024 107.952 254.56 107.616C254.104 107.272 253.756 106.776 253.516 106.128C253.284 105.48 253.168 104.688 253.168 103.752C253.168 102.808 253.284 102.016 253.516 101.376C253.756 100.728 254.104 100.24 254.56 99.912C255.024 99.584 255.588 99.42 256.252 99.42C256.924 99.42 257.488 99.584 257.944 99.912C258.408 100.24 258.756 100.724 258.988 101.364C259.22 102.004 259.336 102.796 259.336 103.74C259.336 104.676 259.216 105.472 258.976 106.128C258.744 106.776 258.4 107.272 257.944 107.616C257.488 107.952 256.924 108.12 256.252 108.12ZM256.252 106.86C256.796 106.86 257.196 106.612 257.452 106.116C257.716 105.612 257.848 104.82 257.848 103.74C257.848 102.668 257.716 101.892 257.452 101.412C257.196 100.924 256.796 100.68 256.252 100.68C255.716 100.68 255.316 100.924 255.052 101.412C254.788 101.892 254.656 102.672 254.656 103.752C254.656 104.824 254.788 105.612 255.052 106.116C255.316 106.612 255.716 106.86 256.252 106.86ZM263.647 108.12C262.983 108.12 262.419 107.952 261.955 107.616C261.499 107.272 261.151 106.776 260.911 106.128C260.679 105.48 260.563 104.688 260.563 103.752C260.563 102.808 260.679 102.016 260.911 101.376C261.151 100.728 261.499 100.24 261.955 99.912C262.419 99.584 262.983 99.42 263.647 99.42C264.319 99.42 264.883 99.584 265.339 99.912C265.803 100.24 266.151 100.724 266.383 101.364C266.615 102.004 266.731 102.796 266.731 103.74C266.731 104.676 266.611 105.472 266.371 106.128C266.139 106.776 265.795 107.272 265.339 107.616C264.883 107.952 264.319 108.12 263.647 108.12ZM263.647 106.86C264.191 106.86 264.591 106.612 264.847 106.116C265.111 105.612 265.243 104.82 265.243 103.74C265.243 102.668 265.111 101.892 264.847 101.412C264.591 100.924 264.191 100.68 263.647 100.68C263.111 100.68 262.711 100.924 262.447 101.412C262.183 101.892 262.051 102.672 262.051 103.752C262.051 104.824 262.183 105.612 262.447 106.116C262.711 106.612 263.111 106.86 263.647 106.86ZM271.042 108.12C270.378 108.12 269.814 107.952 269.35 107.616C268.894 107.272 268.546 106.776 268.306 106.128C268.074 105.48 267.958 104.688 267.958 103.752C267.958 102.808 268.074 102.016 268.306 101.376C268.546 100.728 268.894 100.24 269.35 99.912C269.814 99.584 270.378 99.42 271.042 99.42C271.714 99.42 272.278 99.584 272.734 99.912C273.198 100.24 273.546 100.724 273.778 101.364C274.01 102.004 274.126 102.796 274.126 103.74C274.126 104.676 274.006 105.472 273.766 106.128C273.534 106.776 273.19 107.272 272.734 107.616C272.278 107.952 271.714 108.12 271.042 108.12ZM271.042 106.86C271.586 106.86 271.986 106.612 272.242 106.116C272.506 105.612 272.638 104.82 272.638 103.74C272.638 102.668 272.506 101.892 272.242 101.412C271.986 100.924 271.586 100.68 271.042 100.68C270.506 100.68 270.106 100.924 269.842 101.412C269.578 101.892 269.446 102.672 269.446 103.752C269.446 104.824 269.578 105.612 269.842 106.116C270.106 106.612 270.506 106.86 271.042 106.86ZM276.217 109.596L275.605 109.116C275.781 108.94 275.917 108.772 276.013 108.612C276.109 108.46 276.177 108.304 276.217 108.144C276.265 107.984 276.289 107.82 276.289 107.652L276.613 108H275.485V106.332H277.165V107.436C277.165 107.708 277.133 107.964 277.069 108.204C277.013 108.444 276.917 108.676 276.781 108.9C276.645 109.132 276.457 109.364 276.217 109.596ZM281.614 108.12C280.95 108.12 280.386 107.952 279.922 107.616C279.466 107.272 279.118 106.776 278.878 106.128C278.646 105.48 278.53 104.688 278.53 103.752C278.53 102.808 278.646 102.016 278.878 101.376C279.118 100.728 279.466 100.24 279.922 99.912C280.386 99.584 280.95 99.42 281.614 99.42C282.286 99.42 282.85 99.584 283.306 99.912C283.77 100.24 284.118 100.724 284.35 101.364C284.582 102.004 284.698 102.796 284.698 103.74C284.698 104.676 284.578 105.472 284.338 106.128C284.106 106.776 283.762 107.272 283.306 107.616C282.85 107.952 282.286 108.12 281.614 108.12ZM281.614 106.86C282.158 106.86 282.558 106.612 282.814 106.116C283.078 105.612 283.21 104.82 283.21 103.74C283.21 102.668 283.078 101.892 282.814 101.412C282.558 100.924 282.158 100.68 281.614 100.68C281.078 100.68 280.678 100.924 280.414 101.412C280.15 101.892 280.018 102.672 280.018 103.752C280.018 104.824 280.15 105.612 280.414 106.116C280.678 106.612 281.078 106.86 281.614 106.86ZM289.009 108.12C288.345 108.12 287.781 107.952 287.317 107.616C286.861 107.272 286.513 106.776 286.273 106.128C286.041 105.48 285.925 104.688 285.925 103.752C285.925 102.808 286.041 102.016 286.273 101.376C286.513 100.728 286.861 100.24 287.317 99.912C287.781 99.584 288.345 99.42 289.009 99.42C289.681 99.42 290.245 99.584 290.701 99.912C291.165 100.24 291.513 100.724 291.745 101.364C291.977 102.004 292.093 102.796 292.093 103.74C292.093 104.676 291.973 105.472 291.733 106.128C291.501 106.776 291.157 107.272 290.701 107.616C290.245 107.952 289.681 108.12 289.009 108.12ZM289.009 106.86C289.553 106.86 289.953 106.612 290.209 106.116C290.473 105.612 290.605 104.82 290.605 103.74C290.605 102.668 290.473 101.892 290.209 101.412C289.953 100.924 289.553 100.68 289.009 100.68C288.473 100.68 288.073 100.924 287.809 101.412C287.545 101.892 287.413 102.672 287.413 103.752C287.413 104.824 287.545 105.612 287.809 106.116C288.073 106.612 288.473 106.86 289.009 106.86ZM296.405 108.12C295.741 108.12 295.177 107.952 294.713 107.616C294.257 107.272 293.909 106.776 293.669 106.128C293.437 105.48 293.321 104.688 293.321 103.752C293.321 102.808 293.437 102.016 293.669 101.376C293.909 100.728 294.257 100.24 294.713 99.912C295.177 99.584 295.741 99.42 296.405 99.42C297.077 99.42 297.641 99.584 298.097 99.912C298.561 100.24 298.909 100.724 299.141 101.364C299.373 102.004 299.489 102.796 299.489 103.74C299.489 104.676 299.369 105.472 299.129 106.128C298.897 106.776 298.553 107.272 298.097 107.616C297.641 107.952 297.077 108.12 296.405 108.12ZM296.405 106.86C296.949 106.86 297.349 106.612 297.605 106.116C297.869 105.612 298.001 104.82 298.001 103.74C298.001 102.668 297.869 101.892 297.605 101.412C297.349 100.924 296.949 100.68 296.405 100.68C295.869 100.68 295.469 100.924 295.205 101.412C294.941 101.892 294.809 102.672 294.809 103.752C294.809 104.824 294.941 105.612 295.205 106.116C295.469 106.612 295.869 106.86 296.405 106.86Z" fill="black"/>
</svg>
