<svg width="503" height="473" viewBox="0 0 503 473" fill="none" xmlns="http://www.w3.org/2000/svg">
<path d="M168.135 30.1286L204.298 96.7164L133.824 107.767V39.0954L168.135 30.1286Z" fill="#FCD343"/>
<path d="M201.337 253.004L199.128 254.18C193.562 257.148 187.042 257.79 181.001 255.966C174.961 254.143 169.894 250.002 166.915 244.455L120.774 158.498C117.797 152.951 117.153 146.453 118.982 140.433C120.812 134.412 124.966 129.363 130.53 126.395L132.739 125.212C135.494 123.741 138.514 122.826 141.624 122.519C144.734 122.212 147.875 122.519 150.866 123.422C153.857 124.325 156.641 125.807 159.058 127.782C161.475 129.758 163.477 132.189 164.951 134.936L201.725 203.45L203.855 207.396L206.128 211.635L211.085 220.87C212.562 223.618 213.481 226.629 213.791 229.731C214.1 232.833 213.793 235.966 212.888 238.95C211.983 241.934 210.497 244.711 208.515 247.122C206.533 249.534 204.094 251.532 201.337 253.004Z" fill="#252121"/>
<path d="M311.032 243.106C311.032 243.106 350.49 248.22 364.735 222.828C366.429 219.812 367.224 216.376 367.026 212.925C366.828 209.474 365.646 206.151 363.619 203.347L360.681 199.266C358.913 196.835 356.322 195.122 353.387 194.445C350.452 193.767 347.37 194.17 344.709 195.58C338.375 198.856 328.872 201.697 316.646 199.093C316.646 199.093 347.473 191.262 340.964 189.25C334.455 187.237 298.402 195.225 298.141 195.185C297.879 195.146 311.032 243.106 311.032 243.106Z" fill="#F0B6BB"/>
<path d="M314.215 244.116L195.801 259.642C192.42 260.087 188.985 259.863 185.691 258.983C182.397 258.103 179.309 256.585 176.604 254.514C173.899 252.444 171.63 249.863 169.927 246.918C168.223 243.973 167.119 240.722 166.677 237.351L165.133 225.646C164.908 223.95 165.021 222.227 165.464 220.575C165.908 218.923 166.673 217.375 167.718 216.018C168.762 214.661 170.064 213.523 171.55 212.668C173.036 211.813 174.676 211.258 176.377 211.035L200.346 207.878L203.862 207.412L212.28 206.307L307.579 193.828L314.215 244.116Z" fill="#252121"/>
<path d="M288.203 247.905L281.456 197.64" stroke="#FCF0E3" stroke-miterlimit="10"/>
<path d="M298.529 211.169C301.59 211.169 304.072 208.696 304.072 205.644C304.072 202.592 301.59 200.119 298.529 200.119C295.467 200.119 292.986 202.592 292.986 205.644C292.986 208.696 295.467 211.169 298.529 211.169Z" stroke="#FCF0E3" stroke-miterlimit="10"/>
<path d="M102.626 110.964L142.471 109.355L140.484 60.457L100.639 62.0662L102.626 110.964Z" fill="#F0B6BB"/>
<path d="M133.705 90.915C155.912 90.915 173.915 72.9696 173.915 50.8329C173.915 28.6961 155.912 10.7507 133.705 10.7507C111.497 10.7507 93.4944 28.6961 93.4944 50.8329C93.4944 72.9696 111.497 90.915 133.705 90.915Z" fill="#F0B6BB"/>
<path d="M160.778 49.6486L169.235 62.7357L161.61 70.1553" stroke="#252121" stroke-miterlimit="10"/>
<path d="M141.686 90.1258C141.686 90.1258 117.471 96.7167 101.127 74.3392L101.761 89.9284L141.971 97.1271L141.686 90.1258Z" fill="#DD9BA3"/>
<path d="M165.497 75.3258C165.497 75.3258 155.631 79.8724 148.195 72.2711" stroke="#252121" stroke-miterlimit="10"/>
<path d="M170.509 55.5687C171.821 55.5687 172.885 54.5086 172.885 53.2008C172.885 51.8929 171.821 50.8328 170.509 50.8328C169.197 50.8328 168.134 51.8929 168.134 53.2008C168.134 54.5086 169.197 55.5687 170.509 55.5687Z" fill="#252121"/>
<path d="M157.064 56.1133C158.376 56.1133 159.44 55.0531 159.44 53.7453C159.44 52.4375 158.376 51.3773 157.064 51.3773C155.752 51.3773 154.688 52.4375 154.688 53.7453C154.688 55.0531 155.752 56.1133 157.064 56.1133Z" fill="#252121"/>
<path d="M182.127 302.732L58.3525 294.049L69.6839 170.914C69.6839 147.281 88.6884 108.778 111.929 104.255C113.403 103.968 114.901 103.823 116.403 103.821H132.24C139.604 103.821 145.765 107.27 150.841 112.811C162.022 125.046 167.858 147.463 169.489 165.388L182.127 302.732Z" fill="#252121"/>
<path d="M60.1809 279.052L0.000244141 566.367L266.854 578.207L174.999 279.052H60.1809Z" fill="#252121"/>
<path d="M150.809 112.811L145.701 217.484L111.929 104.255C113.403 103.968 114.901 103.823 116.403 103.821H132.24C139.572 103.821 145.701 107.27 150.809 112.811Z" fill="#FCF0E3"/>
<path d="M145.701 217.484L148.227 279.052L111.651 320.097L60.1809 279.052" stroke="#FCF0E3" stroke-miterlimit="10"/>
<path d="M144.395 283.346L182.126 302.732" stroke="#FCF0E3" stroke-miterlimit="10"/>
<path d="M138.614 122.662L142.533 111.714L136.99 103.821H129.072L125.113 115.66L132.239 122.764H133.094L133.688 177.212L144.909 218.273L147.284 217.484L148.076 175.65L138.614 122.662Z" fill="#F55F4B"/>
<path d="M148.869 110.135C149.922 111.011 167.081 134.604 167.081 134.604L156.787 159.863L167.081 198.54L147.285 216.694L148.869 110.135Z" fill="#252121" stroke="#FCF0E3" stroke-miterlimit="10"/>
<path d="M19.0048 237.217L16.938 235.82C11.7222 232.277 8.13137 226.815 6.9553 220.633C5.77923 214.452 7.11418 208.058 10.6666 202.858L65.724 122.283C67.4796 119.705 69.7284 117.497 72.3415 115.787C74.9547 114.076 77.8808 112.897 80.9521 112.316C84.0233 111.736 87.1794 111.765 90.2393 112.402C93.2993 113.04 96.2029 114.273 98.7838 116.031L100.858 117.444C103.442 119.196 105.653 121.439 107.366 124.044C109.079 126.649 110.259 129.565 110.84 132.625C111.42 135.686 111.389 138.83 110.748 141.879C110.108 144.927 108.87 147.82 107.106 150.391L63.2059 214.603L60.6561 218.328L57.9401 222.275L52.0249 230.958C48.4727 236.145 43.0022 239.716 36.8126 240.89C30.6229 242.063 24.2191 240.742 19.0048 237.217Z" fill="#252121"/>
<path d="M111.961 103.331C111.169 104.42 99.7979 131.281 99.7979 131.281L115.611 153.548L114.408 193.551L144.91 217.484L111.961 103.331Z" fill="#252121" stroke="#FCF0E3" stroke-miterlimit="10"/>
<path d="M25.6799 339.388C25.6799 339.388 21.8077 378.767 47.4241 392.368C50.4525 393.977 53.8813 394.683 57.3015 394.403C60.7217 394.123 63.989 392.869 66.7136 390.789L70.6728 387.774C73.0365 385.933 74.657 383.306 75.2386 380.373C75.8201 377.44 75.3238 374.396 73.8403 371.798C69.1624 363.307 67.6265 353.447 69.5009 343.942C69.5009 343.942 78.2113 374.45 80.0009 367.93C81.7904 361.41 72.7871 325.701 72.8108 325.448C72.8346 325.196 25.6799 339.388 25.6799 339.388Z" fill="#F0B6BB"/>
<path d="M24.8568 343.342L6.12156 225.732C5.05306 218.958 6.72777 212.038 10.7773 206.495C14.8268 200.951 20.9196 197.238 27.7153 196.172L39.4189 194.317C42.841 193.776 46.3385 194.612 49.1421 196.642C51.9458 198.671 53.8259 201.728 54.3691 205.139L58.162 228.937L58.7163 232.426L60.0545 240.785L75.0997 335.41L24.8568 343.342Z" fill="#252121"/>
<path d="M22.1399 324.588L72.367 316.521" stroke="#FCF0E3" stroke-miterlimit="10"/>
<path d="M33.0124 339.546C36.0737 339.546 38.5554 337.072 38.5554 334.021C38.5554 330.969 36.0737 328.495 33.0124 328.495C29.9511 328.495 27.4695 330.969 27.4695 334.021C27.4695 337.072 29.9511 339.546 33.0124 339.546Z" stroke="#FCF0E3" stroke-miterlimit="10"/>
<path d="M172.624 39.0955L148.956 25.0691C144.909 30.5233 138.321 35.9381 127.489 39.2218L120.362 114.871H54.6382C51.4154 114.871 55.7943 70.1556 56.3327 67.2824C61.5748 39.3875 76.5487 13.2055 104.873 3.78087C118.374 -0.710418 133.99 -1.68129 147.435 3.5125C162.995 9.52719 170.621 23.1352 172.624 39.0955Z" fill="#FCD343"/>
<path d="M306.257 590.837H499.041V406.134H306.257V590.837Z" fill="#F55F4B"/>
<path d="M306.25 406.134H274.235V590.837H306.25V406.134Z" fill="#252121"/>
<path d="M400.099 448.757H420.688V406.134H400.099V448.757Z" fill="#FCF0E3"/>
<path d="M281.322 440.075H297.159V405.344H281.322V440.075Z" fill="#FCF0E3"/>
<path d="M330.589 129.231L334.469 129.841L337.799 108.789L333.919 108.18L330.589 129.231Z" fill="#252121"/>
<path d="M360.195 132.229L251.565 115.156L225.762 278.285L334.393 295.358L360.195 132.229Z" fill="#F55F4B"/>
<path d="M353.417 136.966L256.559 121.743L232.548 273.542L329.406 288.765L353.417 136.966Z" fill="#FCF0E3"/>
<path d="M334.412 295.34L337.901 295.889L363.703 132.76L360.215 132.212L334.412 295.34Z" fill="#252121"/>
<path d="M279.936 99.708L276.61 126.711L329.411 134.604L333.908 108.193L279.936 99.708ZM326.243 121.186L283.222 114.429L284.275 107.767L327.297 114.524L326.243 121.186Z" fill="#F55F4B"/>
</svg>
