<svg width="432" height="356" viewBox="0 0 432 356" fill="none" xmlns="http://www.w3.org/2000/svg">
<path d="M219.882 480L219.882 262.565L6.01392 139.495L6.01392 356.93L219.882 480Z" fill="#FCD343"/>
<path d="M219.882 262.565L449.264 130.038L449.264 347.515L219.882 480L219.882 262.565Z" fill="#FCD343"/>
<path opacity="0.15" d="M219.882 262.565L449.264 130.038L449.264 347.515L219.882 480L219.882 262.565Z" fill="white"/>
<path d="M219.883 262.565L0.000488178 136.011L235.396 3.46364e-07L455.237 126.554L219.883 262.565Z" fill="#FCD343"/>
<path opacity="0.3" d="M219.883 262.565L0.000488178 136.011L235.396 3.46364e-07L455.237 126.554L219.883 262.565Z" fill="white"/>
<path d="M219.883 262.565L219.883 301.39L0.000732392 174.877L0.000732422 136.011L219.883 262.565Z" fill="#FCD343"/>
<path d="M455.237 126.554L219.882 262.565L219.882 301.39L455.237 165.42L455.237 126.554Z" fill="#FCD343"/>
<path opacity="0.15" d="M455.237 126.554L219.882 262.565L219.882 301.39L455.237 165.42L455.237 126.554Z" fill="white"/>
<path opacity="0.1" d="M6.22314 178.32L6.22314 186.865L220.091 309.934L220.091 301.39L6.22314 178.32ZM449.472 168.863L220.091 301.597L220.091 310.142L449.472 177.408L449.472 168.863Z" fill="black"/>
<path d="M156.959 153.806L188.359 171.932L298.238 108.469L266.838 90.3838L156.959 153.806Z" fill="#FCD343"/>
<path opacity="0.2" d="M290.399 113.032L298.239 108.469L266.839 90.3838L266.88 99.5092L290.399 113.032Z" fill="black"/>
<path opacity="0.1" d="M164.84 158.327L266.838 99.4263L266.838 90.3838L156.959 153.806L164.84 158.327Z" fill="black"/>
<path d="M268.79 388.413L253.982 341.624L265.306 335.112L271.694 357.635C274.266 366.512 275.261 370.079 275.303 370.411L275.51 370.411C275.51 370.121 276.547 365.268 279.036 353.819L285.506 323.581L296.291 317.359L281.483 381.279L268.79 388.413Z" fill="#FAFAFA"/>
<path d="M318.728 303.132C331.421 295.832 340.587 302.385 340.587 319.309C340.587 336.233 331.421 353.364 318.728 360.788C306.035 368.213 296.827 361.535 296.827 344.653C296.827 327.771 306.035 310.474 318.728 303.132ZM318.728 348.137C322.482 345.598 325.536 342.154 327.609 338.123C329.683 334.093 330.708 329.605 330.591 325.075C330.591 315.12 325.613 311.677 318.728 315.617C314.965 318.167 311.905 321.625 309.831 325.67C307.758 329.716 306.738 334.219 306.865 338.763C306.865 348.635 311.842 352.119 318.728 348.137Z" fill="#FAFAFA"/>
<path d="M365.351 289.651L365.351 332.665L355.354 338.431L355.354 295.417L342.703 302.758L342.703 290.315L378.002 269.907L378.002 282.351L365.351 289.651Z" fill="#FAFAFA"/>
<path d="M383.188 267.045L413.426 249.582L413.426 262.026L393.143 273.723L393.143 283.222L408.075 274.594L408.075 285.669L393.143 294.297L393.143 304.418L413.883 292.513L413.883 304.957L383.354 322.586L383.188 267.045Z" fill="#FAFAFA"/>
<path d="M294.63 95.5271L284.758 116.101L188.36 171.932L168.242 160.318L222.249 46.291L294.63 95.5271Z" fill="#FAFAFA"/>
</svg>
